solid
 facet normal -1.000000e+00  0.000000e+00  0.000000e+00
   outer loop
     vertex -3.000000e+00  2.350000e+00  3.000000e+00
     vertex -3.000000e+00  4.350000e+00  0.000000e+00
     vertex -3.000000e+00  2.350000e+00  0.000000e+00
   endloop
 endfacet
 facet normal -1.000000e+00  0.000000e+00  0.000000e+00
   outer loop
     vertex -3.000000e+00  2.350000e+00  3.000000e+00
     vertex -3.000000e+00  4.350000e+00  3.000000e+00
     vertex -3.000000e+00  4.350000e+00  0.000000e+00
   endloop
 endfacet
 facet normal  0.000000e+00 -1.000000e+00 -2.960595e-16
   outer loop
     vertex -3.000000e+00  2.350000e+00  3.000000e+00
     vertex -3.000000e+00  2.350000e+00  0.000000e+00
     vertex -1.000000e+00  2.350000e+00  0.000000e+00
   endloop
 endfacet
 facet normal  1.776357e-16 -1.000000e+00 -1.776357e-16
   outer loop
     vertex -1.000000e+00  2.350000e+00  5.000000e+00
     vertex -3.000000e+00  2.350000e+00  3.000000e+00
     vertex -1.000000e+00  2.350000e+00  0.000000e+00
   endloop
 endfacet
 facet normal -7.071068e-01  0.000000e+00  7.071068e-01
   outer loop
     vertex -1.000000e+00  4.350000e+00  5.000000e+00
     vertex -3.000000e+00  2.350000e+00  3.000000e+00
     vertex -1.000000e+00  2.350000e+00  5.000000e+00
   endloop
 endfacet
 facet normal -7.071068e-01  0.000000e+00  7.071068e-01
   outer loop
     vertex -1.000000e+00  4.350000e+00  5.000000e+00
     vertex -3.000000e+00  4.350000e+00  3.000000e+00
     vertex -3.000000e+00  2.350000e+00  3.000000e+00
   endloop
 endfacet
 facet normal -0.000000e+00  0.000000e+00 -1.000000e+00
   outer loop
     vertex -1.000000e+00 -2.350000e+00  0.000000e+00
     vertex -3.000000e+00 -4.350000e+00  0.000000e+00
     vertex -3.000000e+00 -2.350000e+00  0.000000e+00
   endloop
 endfacet
 facet normal  0.000000e+00 -0.000000e+00 -1.000000e+00
   outer loop
     vertex  1.000000e+00 -2.350000e+00  0.000000e+00
     vertex  3.000000e+00 -4.350000e+00  0.000000e+00
     vertex -3.000000e+00 -4.350000e+00  0.000000e+00
   endloop
 endfacet
 facet normal -0.000000e+00  0.000000e+00 -1.000000e+00
   outer loop
     vertex  1.000000e+00 -2.350000e+00  0.000000e+00
     vertex -3.000000e+00 -4.350000e+00  0.000000e+00
     vertex -1.000000e+00 -2.350000e+00  0.000000e+00
   endloop
 endfacet
 facet normal -0.000000e+00 -0.000000e+00 -1.000000e+00
   outer loop
     vertex  3.000000e+00 -2.350000e+00  0.000000e+00
     vertex  3.000000e+00 -4.350000e+00  0.000000e+00
     vertex  1.000000e+00 -2.350000e+00  0.000000e+00
   endloop
 endfacet
 facet normal  0.000000e+00  0.000000e+00 -1.000000e+00
   outer loop
     vertex -3.000000e+00  4.350000e+00  0.000000e+00
     vertex -1.000000e+00  2.350000e+00  0.000000e+00
     vertex -3.000000e+00  2.350000e+00  0.000000e+00
   endloop
 endfacet
 facet normal -0.000000e+00  0.000000e+00 -1.000000e+00
   outer loop
     vertex  1.000000e+00  2.350000e+00  0.000000e+00
     vertex -1.000000e+00 -2.350000e+00  0.000000e+00
     vertex -1.000000e+00  2.350000e+00  0.000000e+00
   endloop
 endfacet
 facet normal  0.000000e+00 -0.000000e+00 -1.000000e+00
   outer loop
     vertex  1.000000e+00  2.350000e+00  0.000000e+00
     vertex  1.000000e+00 -2.350000e+00  0.000000e+00
     vertex -1.000000e+00 -2.350000e+00  0.000000e+00
   endloop
 endfacet
 facet normal  0.000000e+00 -0.000000e+00 -1.000000e+00
   outer loop
     vertex  3.000000e+00  4.350000e+00  0.000000e+00
     vertex  3.000000e+00  2.350000e+00  0.000000e+00
     vertex  1.000000e+00  2.350000e+00  0.000000e+00
   endloop
 endfacet
 facet normal -0.000000e+00  0.000000e+00 -1.000000e+00
   outer loop
     vertex  3.000000e+00  4.350000e+00  0.000000e+00
     vertex -1.000000e+00  2.350000e+00  0.000000e+00
     vertex -3.000000e+00  4.350000e+00  0.000000e+00
   endloop
 endfacet
 facet normal  0.000000e+00  0.000000e+00 -1.000000e+00
   outer loop
     vertex  3.000000e+00  4.350000e+00  0.000000e+00
     vertex  1.000000e+00  2.350000e+00  0.000000e+00
     vertex -1.000000e+00  2.350000e+00  0.000000e+00
   endloop
 endfacet
 facet normal  0.000000e+00  1.000000e+00  0.000000e+00
   outer loop
     vertex  3.000000e+00  4.350000e+00  3.000000e+00
     vertex  3.000000e+00  4.350000e+00  0.000000e+00
     vertex -3.000000e+00  4.350000e+00  0.000000e+00
   endloop
 endfacet
 facet normal  0.000000e+00  1.000000e+00  0.000000e+00
   outer loop
     vertex  3.000000e+00  4.350000e+00  3.000000e+00
     vertex -3.000000e+00  4.350000e+00  0.000000e+00
     vertex -3.000000e+00  4.350000e+00  3.000000e+00
   endloop
 endfacet
 facet normal  0.000000e+00  1.000000e+00  0.000000e+00
   outer loop
     vertex  3.000000e+00  4.350000e+00  3.000000e+00
     vertex -3.000000e+00  4.350000e+00  3.000000e+00
     vertex -1.000000e+00  4.350000e+00  5.000000e+00
   endloop
 endfacet
 facet normal  0.000000e+00  1.000000e+00  0.000000e+00
   outer loop
     vertex  3.000000e+00  4.350000e+00  3.000000e+00
     vertex -1.000000e+00  4.350000e+00  5.000000e+00
     vertex  1.000000e+00  4.350000e+00  5.000000e+00
   endloop
 endfacet
 facet normal -1.000000e+00  0.000000e+00  0.000000e+00
   outer loop
     vertex -1.000000e+00 -2.350000e+00  5.000000e+00
     vertex -1.000000e+00  2.350000e+00  0.000000e+00
     vertex -1.000000e+00 -2.350000e+00  0.000000e+00
   endloop
 endfacet
 facet normal -1.000000e+00  0.000000e+00  0.000000e+00
   outer loop
     vertex -1.000000e+00 -2.350000e+00  5.000000e+00
     vertex -1.000000e+00  2.350000e+00  5.000000e+00
     vertex -1.000000e+00  2.350000e+00  0.000000e+00
   endloop
 endfacet
 facet normal  0.000000e+00  0.000000e+00  1.000000e+00
   outer loop
     vertex  1.000000e+00 -2.350000e+00  5.000000e+00
     vertex -1.000000e+00 -4.350000e+00  5.000000e+00
     vertex  1.000000e+00 -4.350000e+00  5.000000e+00
   endloop
 endfacet
 facet normal  0.000000e+00  0.000000e+00  1.000000e+00
   outer loop
     vertex  1.000000e+00 -2.350000e+00  5.000000e+00
     vertex -1.000000e+00 -2.350000e+00  5.000000e+00
     vertex -1.000000e+00 -4.350000e+00  5.000000e+00
   endloop
 endfacet
 facet normal  0.000000e+00  0.000000e+00  1.000000e+00
   outer loop
     vertex  1.000000e+00  2.350000e+00  5.000000e+00
     vertex -1.000000e+00  2.350000e+00  5.000000e+00
     vertex -1.000000e+00 -2.350000e+00  5.000000e+00
   endloop
 endfacet
 facet normal  0.000000e+00  0.000000e+00  1.000000e+00
   outer loop
     vertex  1.000000e+00  2.350000e+00  5.000000e+00
     vertex -1.000000e+00 -2.350000e+00  5.000000e+00
     vertex  1.000000e+00 -2.350000e+00  5.000000e+00
   endloop
 endfacet
 facet normal  0.000000e+00  0.000000e+00  1.000000e+00
   outer loop
     vertex  1.000000e+00  4.350000e+00  5.000000e+00
     vertex -1.000000e+00  4.350000e+00  5.000000e+00
     vertex -1.000000e+00  2.350000e+00  5.000000e+00
   endloop
 endfacet
 facet normal  0.000000e+00  0.000000e+00  1.000000e+00
   outer loop
     vertex  1.000000e+00  4.350000e+00  5.000000e+00
     vertex -1.000000e+00  2.350000e+00  5.000000e+00
     vertex  1.000000e+00  2.350000e+00  5.000000e+00
   endloop
 endfacet
 facet normal  0.000000e+00  1.000000e+00  0.000000e+00
   outer loop
     vertex -3.000000e+00 -2.350000e+00  3.000000e+00
     vertex -1.000000e+00 -2.350000e+00  0.000000e+00
     vertex -3.000000e+00 -2.350000e+00  0.000000e+00
   endloop
 endfacet
 facet normal  0.000000e+00  1.000000e+00  0.000000e+00
   outer loop
     vertex -1.000000e+00 -2.350000e+00  5.000000e+00
     vertex -1.000000e+00 -2.350000e+00  0.000000e+00
     vertex -3.000000e+00 -2.350000e+00  3.000000e+00
   endloop
 endfacet
 facet normal -1.000000e+00  0.000000e+00  0.000000e+00
   outer loop
     vertex -3.000000e+00 -4.350000e+00  3.000000e+00
     vertex -3.000000e+00 -2.350000e+00  0.000000e+00
     vertex -3.000000e+00 -4.350000e+00  0.000000e+00
   endloop
 endfacet
 facet normal -1.000000e+00  0.000000e+00  0.000000e+00
   outer loop
     vertex -3.000000e+00 -4.350000e+00  3.000000e+00
     vertex -3.000000e+00 -2.350000e+00  3.000000e+00
     vertex -3.000000e+00 -2.350000e+00  0.000000e+00
   endloop
 endfacet
 facet normal  0.000000e+00 -1.000000e+00 -0.000000e+00
   outer loop
     vertex  3.000000e+00 -4.350000e+00  3.000000e+00
     vertex -3.000000e+00 -4.350000e+00  0.000000e+00
     vertex  3.000000e+00 -4.350000e+00  0.000000e+00
   endloop
 endfacet
 facet normal -0.000000e+00 -1.000000e+00  0.000000e+00
   outer loop
     vertex  3.000000e+00 -4.350000e+00  3.000000e+00
     vertex -3.000000e+00 -4.350000e+00  3.000000e+00
     vertex -3.000000e+00 -4.350000e+00  0.000000e+00
   endloop
 endfacet
 facet normal  0.000000e+00 -1.000000e+00  0.000000e+00
   outer loop
     vertex  3.000000e+00 -4.350000e+00  3.000000e+00
     vertex -1.000000e+00 -4.350000e+00  5.000000e+00
     vertex -3.000000e+00 -4.350000e+00  3.000000e+00
   endloop
 endfacet
 facet normal  0.000000e+00 -1.000000e+00  0.000000e+00
   outer loop
     vertex  3.000000e+00 -4.350000e+00  3.000000e+00
     vertex  1.000000e+00 -4.350000e+00  5.000000e+00
     vertex -1.000000e+00 -4.350000e+00  5.000000e+00
   endloop
 endfacet
 facet normal  1.000000e+00  0.000000e+00  0.000000e+00
   outer loop
     vertex  3.000000e+00 -4.350000e+00  3.000000e+00
     vertex  3.000000e+00 -4.350000e+00  0.000000e+00
     vertex  3.000000e+00 -2.350000e+00  0.000000e+00
   endloop
 endfacet
 facet normal  1.000000e+00 -0.000000e+00  0.000000e+00
   outer loop
     vertex  3.000000e+00 -4.350000e+00  3.000000e+00
     vertex  3.000000e+00 -2.350000e+00  0.000000e+00
     vertex  3.000000e+00 -2.350000e+00  3.000000e+00
   endloop
 endfacet
 facet normal  0.000000e+00  1.000000e+00  0.000000e+00
   outer loop
     vertex  3.000000e+00 -2.350000e+00  3.000000e+00
     vertex  3.000000e+00 -2.350000e+00  0.000000e+00
     vertex  1.000000e+00 -2.350000e+00  0.000000e+00
   endloop
 endfacet
 facet normal  0.000000e+00  1.000000e+00  0.000000e+00
   outer loop
     vertex  1.000000e+00 -2.350000e+00  5.000000e+00
     vertex  3.000000e+00 -2.350000e+00  3.000000e+00
     vertex  1.000000e+00 -2.350000e+00  0.000000e+00
   endloop
 endfacet
 facet normal  1.000000e+00  0.000000e+00  4.440892e-17
   outer loop
     vertex  1.000000e+00 -2.350000e+00  5.000000e+00
     vertex  1.000000e+00 -2.350000e+00  0.000000e+00
     vertex  1.000000e+00  2.350000e+00  0.000000e+00
   endloop
 endfacet
 facet normal  1.000000e+00 -0.000000e+00  4.440892e-17
   outer loop
     vertex  1.000000e+00 -2.350000e+00  5.000000e+00
     vertex  1.000000e+00  2.350000e+00  0.000000e+00
     vertex  1.000000e+00  2.350000e+00  5.000000e+00
   endloop
 endfacet
 facet normal  0.000000e+00 -1.000000e+00 -2.960595e-16
   outer loop
     vertex  3.000000e+00  2.350000e+00  3.000000e+00
     vertex  1.000000e+00  2.350000e+00  0.000000e+00
     vertex  3.000000e+00  2.350000e+00  0.000000e+00
   endloop
 endfacet
 facet normal -4.440892e-16 -1.000000e+00 -1.972152e-32
   outer loop
     vertex  1.000000e+00  2.350000e+00  5.000000e+00
     vertex  1.000000e+00  2.350000e+00  0.000000e+00
     vertex  3.000000e+00  2.350000e+00  3.000000e+00
   endloop
 endfacet
 facet normal  1.000000e+00  0.000000e+00  0.000000e+00
   outer loop
     vertex  3.000000e+00  2.350000e+00  3.000000e+00
     vertex  3.000000e+00  2.350000e+00  0.000000e+00
     vertex  3.000000e+00  4.350000e+00  0.000000e+00
   endloop
 endfacet
 facet normal  1.000000e+00 -0.000000e+00  0.000000e+00
   outer loop
     vertex  3.000000e+00  2.350000e+00  3.000000e+00
     vertex  3.000000e+00  4.350000e+00  0.000000e+00
     vertex  3.000000e+00  4.350000e+00  3.000000e+00
   endloop
 endfacet
 facet normal  7.071068e-01  0.000000e+00  7.071068e-01
   outer loop
     vertex  3.000000e+00  4.350000e+00  3.000000e+00
     vertex  1.000000e+00  2.350000e+00  5.000000e+00
     vertex  3.000000e+00  2.350000e+00  3.000000e+00
   endloop
 endfacet
 facet normal  7.071068e-01  0.000000e+00  7.071068e-01
   outer loop
     vertex  3.000000e+00  4.350000e+00  3.000000e+00
     vertex  1.000000e+00  4.350000e+00  5.000000e+00
     vertex  1.000000e+00  2.350000e+00  5.000000e+00
   endloop
 endfacet
 facet normal -7.071068e-01  0.000000e+00  7.071068e-01
   outer loop
     vertex -3.000000e+00 -2.350000e+00  3.000000e+00
     vertex -3.000000e+00 -4.350000e+00  3.000000e+00
     vertex -1.000000e+00 -4.350000e+00  5.000000e+00
   endloop
 endfacet
 facet normal -7.071068e-01  0.000000e+00  7.071068e-01
   outer loop
     vertex -3.000000e+00 -2.350000e+00  3.000000e+00
     vertex -1.000000e+00 -4.350000e+00  5.000000e+00
     vertex -1.000000e+00 -2.350000e+00  5.000000e+00
   endloop
 endfacet
 facet normal  7.071068e-01  0.000000e+00  7.071068e-01
   outer loop
     vertex  3.000000e+00 -2.350000e+00  3.000000e+00
     vertex  1.000000e+00 -4.350000e+00  5.000000e+00
     vertex  3.000000e+00 -4.350000e+00  3.000000e+00
   endloop
 endfacet
 facet normal  7.071068e-01  0.000000e+00  7.071068e-01
   outer loop
     vertex  3.000000e+00 -2.350000e+00  3.000000e+00
     vertex  1.000000e+00 -2.350000e+00  5.000000e+00
     vertex  1.000000e+00 -4.350000e+00  5.000000e+00
   endloop
 endfacet
endsolid
