solid
 facet normal -1.000000e+00  0.000000e+00 -0.000000e+00
   outer loop
     vertex -4.000000e+00 -2.400000e+00  3.000000e+00
     vertex -4.000000e+00 -2.400000e+00  0.000000e+00
     vertex -4.000000e+00 -4.900000e+00  0.000000e+00
   endloop
 endfacet
 facet normal -1.000000e+00 -0.000000e+00  0.000000e+00
   outer loop
     vertex -4.000000e+00 -2.400000e+00  3.000000e+00
     vertex -4.000000e+00 -4.900000e+00  0.000000e+00
     vertex -4.000000e+00 -4.900000e+00  3.000000e+00
   endloop
 endfacet
 facet normal  0.000000e+00  1.000000e+00  0.000000e+00
   outer loop
     vertex -4.000000e+00 -2.400000e+00  3.000000e+00
     vertex -1.500000e+00 -2.400000e+00  0.000000e+00
     vertex -4.000000e+00 -2.400000e+00  0.000000e+00
   endloop
 endfacet
 facet normal  0.000000e+00  1.000000e+00  0.000000e+00
   outer loop
     vertex -1.500000e+00 -2.400000e+00  5.000000e+00
     vertex -4.000000e+00 -2.400000e+00  3.000000e+00
     vertex -2.000000e+00 -2.400000e+00  5.000000e+00
   endloop
 endfacet
 facet normal  0.000000e+00  1.000000e+00  0.000000e+00
   outer loop
     vertex -1.500000e+00 -2.400000e+00  5.000000e+00
     vertex -1.500000e+00 -2.400000e+00  0.000000e+00
     vertex -4.000000e+00 -2.400000e+00  3.000000e+00
   endloop
 endfacet
 facet normal -7.071068e-01  0.000000e+00  7.071068e-01
   outer loop
     vertex -2.000000e+00 -4.900000e+00  5.000000e+00
     vertex -2.000000e+00 -2.400000e+00  5.000000e+00
     vertex -4.000000e+00 -2.400000e+00  3.000000e+00
   endloop
 endfacet
 facet normal -7.071068e-01  0.000000e+00  7.071068e-01
   outer loop
     vertex -2.000000e+00 -4.900000e+00  5.000000e+00
     vertex -4.000000e+00 -2.400000e+00  3.000000e+00
     vertex -4.000000e+00 -4.900000e+00  3.000000e+00
   endloop
 endfacet
 facet normal  0.000000e+00  0.000000e+00 -1.000000e+00
   outer loop
     vertex -1.500000e+00  2.400000e+00  0.000000e+00
     vertex -4.000000e+00  2.400000e+00  0.000000e+00
     vertex -4.000000e+00  4.900000e+00  0.000000e+00
   endloop
 endfacet
 facet normal  0.000000e+00  0.000000e+00 -1.000000e+00
   outer loop
     vertex  1.500000e+00  2.400000e+00  0.000000e+00
     vertex -4.000000e+00  4.900000e+00  0.000000e+00
     vertex  4.000000e+00  4.900000e+00  0.000000e+00
   endloop
 endfacet
 facet normal  0.000000e+00  0.000000e+00 -1.000000e+00
   outer loop
     vertex  1.500000e+00  2.400000e+00  0.000000e+00
     vertex -1.500000e+00  2.400000e+00  0.000000e+00
     vertex -4.000000e+00  4.900000e+00  0.000000e+00
   endloop
 endfacet
 facet normal -0.000000e+00  0.000000e+00 -1.000000e+00
   outer loop
     vertex -1.500000e+00 -2.400000e+00  0.000000e+00
     vertex -4.000000e+00 -4.900000e+00  0.000000e+00
     vertex -4.000000e+00 -2.400000e+00  0.000000e+00
   endloop
 endfacet
 facet normal  0.000000e+00  0.000000e+00 -1.000000e+00
   outer loop
     vertex  4.000000e+00  2.400000e+00  0.000000e+00
     vertex  1.500000e+00  2.400000e+00  0.000000e+00
     vertex  4.000000e+00  4.900000e+00  0.000000e+00
   endloop
 endfacet
 facet normal  0.000000e+00  0.000000e+00 -1.000000e+00
   outer loop
     vertex  1.500000e+00 -2.400000e+00  0.000000e+00
     vertex -1.500000e+00 -2.400000e+00  0.000000e+00
     vertex -1.500000e+00  2.400000e+00  0.000000e+00
   endloop
 endfacet
 facet normal  0.000000e+00  0.000000e+00 -1.000000e+00
   outer loop
     vertex  1.500000e+00 -2.400000e+00  0.000000e+00
     vertex -1.500000e+00  2.400000e+00  0.000000e+00
     vertex  1.500000e+00  2.400000e+00  0.000000e+00
   endloop
 endfacet
 facet normal  0.000000e+00  0.000000e+00 -1.000000e+00
   outer loop
     vertex  4.000000e+00 -4.900000e+00  0.000000e+00
     vertex  1.500000e+00 -2.400000e+00  0.000000e+00
     vertex  4.000000e+00 -2.400000e+00  0.000000e+00
   endloop
 endfacet
 facet normal  0.000000e+00  0.000000e+00 -1.000000e+00
   outer loop
     vertex  4.000000e+00 -4.900000e+00  0.000000e+00
     vertex -4.000000e+00 -4.900000e+00  0.000000e+00
     vertex -1.500000e+00 -2.400000e+00  0.000000e+00
   endloop
 endfacet
 facet normal  0.000000e+00  0.000000e+00 -1.000000e+00
   outer loop
     vertex  4.000000e+00 -4.900000e+00  0.000000e+00
     vertex -1.500000e+00 -2.400000e+00  0.000000e+00
     vertex  1.500000e+00 -2.400000e+00  0.000000e+00
   endloop
 endfacet
 facet normal  0.000000e+00 -1.000000e+00  0.000000e+00
   outer loop
     vertex -2.000000e+00 -4.900000e+00  5.000000e+00
     vertex -4.000000e+00 -4.900000e+00  3.000000e+00
     vertex -4.000000e+00 -4.900000e+00  0.000000e+00
   endloop
 endfacet
 facet normal  0.000000e+00 -1.000000e+00  0.000000e+00
   outer loop
     vertex  4.000000e+00 -4.900000e+00  0.000000e+00
     vertex -2.000000e+00 -4.900000e+00  5.000000e+00
     vertex -4.000000e+00 -4.900000e+00  0.000000e+00
   endloop
 endfacet
 facet normal -0.000000e+00 -1.000000e+00 -0.000000e+00
   outer loop
     vertex  2.000000e+00 -4.900000e+00  5.000000e+00
     vertex -2.000000e+00 -4.900000e+00  5.000000e+00
     vertex  4.000000e+00 -4.900000e+00  0.000000e+00
   endloop
 endfacet
 facet normal -0.000000e+00 -1.000000e+00 -0.000000e+00
   outer loop
     vertex  4.000000e+00 -4.900000e+00  3.000000e+00
     vertex  2.000000e+00 -4.900000e+00  5.000000e+00
     vertex  4.000000e+00 -4.900000e+00  0.000000e+00
   endloop
 endfacet
 facet normal -1.000000e+00  0.000000e+00 -0.000000e+00
   outer loop
     vertex -1.500000e+00  2.400000e+00  5.000000e+00
     vertex -1.500000e+00  2.400000e+00  0.000000e+00
     vertex -1.500000e+00 -2.400000e+00  0.000000e+00
   endloop
 endfacet
 facet normal -1.000000e+00 -0.000000e+00  0.000000e+00
   outer loop
     vertex -1.500000e+00  2.400000e+00  5.000000e+00
     vertex -1.500000e+00 -2.400000e+00  0.000000e+00
     vertex -1.500000e+00 -2.400000e+00  5.000000e+00
   endloop
 endfacet
 facet normal  0.000000e+00  0.000000e+00  1.000000e+00
   outer loop
     vertex -1.500000e+00  2.400000e+00  5.000000e+00
     vertex -2.000000e+00  4.900000e+00  5.000000e+00
     vertex -2.000000e+00  2.400000e+00  5.000000e+00
   endloop
 endfacet
 facet normal  0.000000e+00 -0.000000e+00  1.000000e+00
   outer loop
     vertex  1.500000e+00  2.400000e+00  5.000000e+00
     vertex  2.000000e+00  4.900000e+00  5.000000e+00
     vertex -2.000000e+00  4.900000e+00  5.000000e+00
   endloop
 endfacet
 facet normal  0.000000e+00  0.000000e+00  1.000000e+00
   outer loop
     vertex  1.500000e+00  2.400000e+00  5.000000e+00
     vertex -2.000000e+00  4.900000e+00  5.000000e+00
     vertex -1.500000e+00  2.400000e+00  5.000000e+00
   endloop
 endfacet
 facet normal  0.000000e+00 -0.000000e+00  1.000000e+00
   outer loop
     vertex  2.000000e+00  2.400000e+00  5.000000e+00
     vertex  2.000000e+00  4.900000e+00  5.000000e+00
     vertex  1.500000e+00  2.400000e+00  5.000000e+00
   endloop
 endfacet
 facet normal  0.000000e+00  0.000000e+00  1.000000e+00
   outer loop
     vertex -2.000000e+00 -4.900000e+00  5.000000e+00
     vertex -1.500000e+00 -2.400000e+00  5.000000e+00
     vertex -2.000000e+00 -2.400000e+00  5.000000e+00
   endloop
 endfacet
 facet normal  0.000000e+00  0.000000e+00  1.000000e+00
   outer loop
     vertex  1.500000e+00 -2.400000e+00  5.000000e+00
     vertex -1.500000e+00  2.400000e+00  5.000000e+00
     vertex -1.500000e+00 -2.400000e+00  5.000000e+00
   endloop
 endfacet
 facet normal  0.000000e+00 -0.000000e+00  1.000000e+00
   outer loop
     vertex  1.500000e+00 -2.400000e+00  5.000000e+00
     vertex  1.500000e+00  2.400000e+00  5.000000e+00
     vertex -1.500000e+00  2.400000e+00  5.000000e+00
   endloop
 endfacet
 facet normal  0.000000e+00 -0.000000e+00  1.000000e+00
   outer loop
     vertex  2.000000e+00 -4.900000e+00  5.000000e+00
     vertex  2.000000e+00 -2.400000e+00  5.000000e+00
     vertex  1.500000e+00 -2.400000e+00  5.000000e+00
   endloop
 endfacet
 facet normal  0.000000e+00  0.000000e+00  1.000000e+00
   outer loop
     vertex  2.000000e+00 -4.900000e+00  5.000000e+00
     vertex  1.500000e+00 -2.400000e+00  5.000000e+00
     vertex -1.500000e+00 -2.400000e+00  5.000000e+00
   endloop
 endfacet
 facet normal  0.000000e+00  0.000000e+00  1.000000e+00
   outer loop
     vertex  2.000000e+00 -4.900000e+00  5.000000e+00
     vertex -1.500000e+00 -2.400000e+00  5.000000e+00
     vertex -2.000000e+00 -4.900000e+00  5.000000e+00
   endloop
 endfacet
 facet normal  1.000000e+00  0.000000e+00  0.000000e+00
   outer loop
     vertex  1.500000e+00  2.400000e+00  5.000000e+00
     vertex  1.500000e+00 -2.400000e+00  0.000000e+00
     vertex  1.500000e+00  2.400000e+00  0.000000e+00
   endloop
 endfacet
 facet normal  1.000000e+00  0.000000e+00  0.000000e+00
   outer loop
     vertex  1.500000e+00  2.400000e+00  5.000000e+00
     vertex  1.500000e+00 -2.400000e+00  5.000000e+00
     vertex  1.500000e+00 -2.400000e+00  0.000000e+00
   endloop
 endfacet
 facet normal  0.000000e+00  1.000000e+00  0.000000e+00
   outer loop
     vertex  4.000000e+00 -2.400000e+00  3.000000e+00
     vertex  4.000000e+00 -2.400000e+00  0.000000e+00
     vertex  1.500000e+00 -2.400000e+00  0.000000e+00
   endloop
 endfacet
 facet normal  0.000000e+00  1.000000e+00  0.000000e+00
   outer loop
     vertex  4.000000e+00 -2.400000e+00  3.000000e+00
     vertex  1.500000e+00 -2.400000e+00  0.000000e+00
     vertex  1.500000e+00 -2.400000e+00  5.000000e+00
   endloop
 endfacet
 facet normal  0.000000e+00  1.000000e+00  0.000000e+00
   outer loop
     vertex  2.000000e+00 -2.400000e+00  5.000000e+00
     vertex  4.000000e+00 -2.400000e+00  3.000000e+00
     vertex  1.500000e+00 -2.400000e+00  5.000000e+00
   endloop
 endfacet
 facet normal  1.000000e+00  0.000000e+00  0.000000e+00
   outer loop
     vertex  4.000000e+00 -2.400000e+00  3.000000e+00
     vertex  4.000000e+00 -4.900000e+00  0.000000e+00
     vertex  4.000000e+00 -2.400000e+00  0.000000e+00
   endloop
 endfacet
 facet normal  1.000000e+00  0.000000e+00  0.000000e+00
   outer loop
     vertex  4.000000e+00 -2.400000e+00  3.000000e+00
     vertex  4.000000e+00 -4.900000e+00  3.000000e+00
     vertex  4.000000e+00 -4.900000e+00  0.000000e+00
   endloop
 endfacet
 facet normal  7.071068e-01 -0.000000e+00  7.071068e-01
   outer loop
     vertex  2.000000e+00 -4.900000e+00  5.000000e+00
     vertex  4.000000e+00 -2.400000e+00  3.000000e+00
     vertex  2.000000e+00 -2.400000e+00  5.000000e+00
   endloop
 endfacet
 facet normal  7.071068e-01  0.000000e+00  7.071068e-01
   outer loop
     vertex  2.000000e+00 -4.900000e+00  5.000000e+00
     vertex  4.000000e+00 -4.900000e+00  3.000000e+00
     vertex  4.000000e+00 -2.400000e+00  3.000000e+00
   endloop
 endfacet
 facet normal -1.000000e+00  0.000000e+00  0.000000e+00
   outer loop
     vertex -4.000000e+00  2.400000e+00  3.000000e+00
     vertex -4.000000e+00  4.900000e+00  0.000000e+00
     vertex -4.000000e+00  2.400000e+00  0.000000e+00
   endloop
 endfacet
 facet normal -1.000000e+00  0.000000e+00  0.000000e+00
   outer loop
     vertex -4.000000e+00  2.400000e+00  3.000000e+00
     vertex -4.000000e+00  4.900000e+00  3.000000e+00
     vertex -4.000000e+00  4.900000e+00  0.000000e+00
   endloop
 endfacet
 facet normal  0.000000e+00 -1.000000e+00  0.000000e+00
   outer loop
     vertex -4.000000e+00  2.400000e+00  3.000000e+00
     vertex -4.000000e+00  2.400000e+00  0.000000e+00
     vertex -1.500000e+00  2.400000e+00  0.000000e+00
   endloop
 endfacet
 facet normal -0.000000e+00 -1.000000e+00  0.000000e+00
   outer loop
     vertex -1.500000e+00  2.400000e+00  5.000000e+00
     vertex -2.000000e+00  2.400000e+00  5.000000e+00
     vertex -4.000000e+00  2.400000e+00  3.000000e+00
   endloop
 endfacet
 facet normal  0.000000e+00 -1.000000e+00 -0.000000e+00
   outer loop
     vertex -1.500000e+00  2.400000e+00  5.000000e+00
     vertex -4.000000e+00  2.400000e+00  3.000000e+00
     vertex -1.500000e+00  2.400000e+00  0.000000e+00
   endloop
 endfacet
 facet normal  0.000000e+00 -1.000000e+00 -0.000000e+00
   outer loop
     vertex  4.000000e+00  2.400000e+00  3.000000e+00
     vertex  1.500000e+00  2.400000e+00  0.000000e+00
     vertex  4.000000e+00  2.400000e+00  0.000000e+00
   endloop
 endfacet
 facet normal -0.000000e+00 -1.000000e+00  0.000000e+00
   outer loop
     vertex  4.000000e+00  2.400000e+00  3.000000e+00
     vertex  1.500000e+00  2.400000e+00  5.000000e+00
     vertex  1.500000e+00  2.400000e+00  0.000000e+00
   endloop
 endfacet
 facet normal -0.000000e+00 -1.000000e+00 -0.000000e+00
   outer loop
     vertex  2.000000e+00  2.400000e+00  5.000000e+00
     vertex  1.500000e+00  2.400000e+00  5.000000e+00
     vertex  4.000000e+00  2.400000e+00  3.000000e+00
   endloop
 endfacet
 facet normal  1.000000e+00  0.000000e+00  0.000000e+00
   outer loop
     vertex  4.000000e+00  2.400000e+00  3.000000e+00
     vertex  4.000000e+00  2.400000e+00  0.000000e+00
     vertex  4.000000e+00  4.900000e+00  0.000000e+00
   endloop
 endfacet
 facet normal  1.000000e+00 -0.000000e+00  0.000000e+00
   outer loop
     vertex  4.000000e+00  2.400000e+00  3.000000e+00
     vertex  4.000000e+00  4.900000e+00  0.000000e+00
     vertex  4.000000e+00  4.900000e+00  3.000000e+00
   endloop
 endfacet
 facet normal  0.000000e+00  1.000000e+00  0.000000e+00
   outer loop
     vertex -2.000000e+00  4.900000e+00  5.000000e+00
     vertex -4.000000e+00  4.900000e+00  0.000000e+00
     vertex -4.000000e+00  4.900000e+00  3.000000e+00
   endloop
 endfacet
 facet normal  0.000000e+00  1.000000e+00  0.000000e+00
   outer loop
     vertex  4.000000e+00  4.900000e+00  0.000000e+00
     vertex -4.000000e+00  4.900000e+00  0.000000e+00
     vertex -2.000000e+00  4.900000e+00  5.000000e+00
   endloop
 endfacet
 facet normal  0.000000e+00  1.000000e+00  0.000000e+00
   outer loop
     vertex  2.000000e+00  4.900000e+00  5.000000e+00
     vertex  4.000000e+00  4.900000e+00  0.000000e+00
     vertex -2.000000e+00  4.900000e+00  5.000000e+00
   endloop
 endfacet
 facet normal  0.000000e+00  1.000000e+00  0.000000e+00
   outer loop
     vertex  4.000000e+00  4.900000e+00  3.000000e+00
     vertex  4.000000e+00  4.900000e+00  0.000000e+00
     vertex  2.000000e+00  4.900000e+00  5.000000e+00
   endloop
 endfacet
 facet normal -7.071068e-01  0.000000e+00  7.071068e-01
   outer loop
     vertex -2.000000e+00  4.900000e+00  5.000000e+00
     vertex -4.000000e+00  2.400000e+00  3.000000e+00
     vertex -2.000000e+00  2.400000e+00  5.000000e+00
   endloop
 endfacet
 facet normal -7.071068e-01  0.000000e+00  7.071068e-01
   outer loop
     vertex -2.000000e+00  4.900000e+00  5.000000e+00
     vertex -4.000000e+00  4.900000e+00  3.000000e+00
     vertex -4.000000e+00  2.400000e+00  3.000000e+00
   endloop
 endfacet
 facet normal  7.071068e-01  0.000000e+00  7.071068e-01
   outer loop
     vertex  2.000000e+00  4.900000e+00  5.000000e+00
     vertex  2.000000e+00  2.400000e+00  5.000000e+00
     vertex  4.000000e+00  2.400000e+00  3.000000e+00
   endloop
 endfacet
 facet normal  7.071068e-01  0.000000e+00  7.071068e-01
   outer loop
     vertex  2.000000e+00  4.900000e+00  5.000000e+00
     vertex  4.000000e+00  2.400000e+00  3.000000e+00
     vertex  4.000000e+00  4.900000e+00  3.000000e+00
   endloop
 endfacet
endsolid
