solid
 facet normal  1.000000e+00  0.000000e+00  0.000000e+00
   outer loop
     vertex  1.200000e+01 -1.469576e-15  6.800000e+00
     vertex  1.200000e+01 -1.400000e+00  0.000000e+00
     vertex  1.200000e+01 -1.469576e-15  0.000000e+00
   endloop
 endfacet
 facet normal  1.000000e+00  0.000000e+00  0.000000e+00
   outer loop
     vertex  1.200000e+01 -1.469576e-15  6.800000e+00
     vertex  1.200000e+01 -1.400000e+00  6.800000e+00
     vertex  1.200000e+01 -1.400000e+00  0.000000e+00
   endloop
 endfacet
 facet normal  1.224647e-16  1.000000e+00  0.000000e+00
   outer loop
     vertex  4.400000e+00 -5.388446e-16  1.600000e+00
     vertex  1.200000e+01 -1.469576e-15  6.800000e+00
     vertex  1.200000e+01 -1.469576e-15  0.000000e+00
   endloop
 endfacet
 facet normal  1.224647e-16  1.000000e+00  0.000000e+00
   outer loop
     vertex  4.400000e+00 -5.388446e-16  6.800000e+00
     vertex  1.200000e+01 -1.469576e-15  6.800000e+00
     vertex  4.400000e+00 -5.388446e-16  1.600000e+00
   endloop
 endfacet
 facet normal  1.224647e-16  1.000000e+00  5.988317e-32
   outer loop
     vertex -1.200000e+01  1.469576e-15  6.800000e+00
     vertex -4.400000e+00  5.388446e-16  6.800000e+00
     vertex -4.400000e+00  5.388446e-16  1.600000e+00
   endloop
 endfacet
 facet normal  1.224647e-16  1.000000e+00  0.000000e+00
   outer loop
     vertex -1.200000e+01  1.469576e-15  6.800000e+00
     vertex -4.400000e+00  5.388446e-16  1.600000e+00
     vertex -1.200000e+01  1.469576e-15  0.000000e+00
   endloop
 endfacet
 facet normal  1.224647e-16  1.000000e+00  3.286920e-31
   outer loop
     vertex -1.200000e+01  1.469576e-15  0.000000e+00
     vertex  4.400000e+00 -5.388446e-16  1.600000e+00
     vertex  1.200000e+01 -1.469576e-15  0.000000e+00
   endloop
 endfacet
 facet normal  1.224647e-16  1.000000e+00 -4.482164e-31
   outer loop
     vertex -1.200000e+01  1.469576e-15  0.000000e+00
     vertex -4.400000e+00  5.388446e-16  1.600000e+00
     vertex  4.400000e+00 -5.388446e-16  1.600000e+00
   endloop
 endfacet
 facet normal -0.000000e+00  0.000000e+00  1.000000e+00
   outer loop
     vertex  4.400000e+00 -1.400000e+00  6.800000e+00
     vertex  1.200000e+01 -1.400000e+00  6.800000e+00
     vertex  1.200000e+01 -1.469576e-15  6.800000e+00
   endloop
 endfacet
 facet normal -1.168656e-16  6.344132e-16  1.000000e+00
   outer loop
     vertex  4.400000e+00 -1.400000e+00  6.800000e+00
     vertex  1.200000e+01 -1.469576e-15  6.800000e+00
     vertex  4.400000e+00 -5.388446e-16  6.800000e+00
   endloop
 endfacet
 facet normal -1.110223e-16 -1.000000e+00 -0.000000e+00
   outer loop
     vertex  1.000000e+01 -1.400000e+00  2.600000e+00
     vertex  1.000000e+01 -1.400000e+00  0.000000e+00
     vertex  1.200000e+01 -1.400000e+00  0.000000e+00
   endloop
 endfacet
 facet normal -2.220446e-16 -1.000000e+00 -0.000000e+00
   outer loop
     vertex  9.000000e+00 -1.400000e+00  2.600000e+00
     vertex  8.000000e+00 -1.400000e+00  1.600000e+00
     vertex  9.000000e+00 -1.400000e+00  4.000000e-01
   endloop
 endfacet
 facet normal -2.220446e-16 -1.000000e+00 -0.000000e+00
   outer loop
     vertex  8.000000e+00 -1.400000e+00  2.600000e+00
     vertex  8.000000e+00 -1.400000e+00  1.600000e+00
     vertex  9.000000e+00 -1.400000e+00  2.600000e+00
   endloop
 endfacet
 facet normal -2.220446e-16 -1.000000e+00  5.286776e-17
   outer loop
     vertex  1.200000e+01 -1.400000e+00  6.800000e+00
     vertex  9.000000e+00 -1.400000e+00  2.600000e+00
     vertex  1.000000e+01 -1.400000e+00  2.600000e+00
   endloop
 endfacet
 facet normal -1.110223e-16 -1.000000e+00 -0.000000e+00
   outer loop
     vertex  1.200000e+01 -1.400000e+00  6.800000e+00
     vertex  1.000000e+01 -1.400000e+00  2.600000e+00
     vertex  1.200000e+01 -1.400000e+00  0.000000e+00
   endloop
 endfacet
 facet normal -2.220446e-16 -1.000000e+00  5.286776e-17
   outer loop
     vertex  1.200000e+01 -1.400000e+00  6.800000e+00
     vertex  8.000000e+00 -1.400000e+00  2.600000e+00
     vertex  9.000000e+00 -1.400000e+00  2.600000e+00
   endloop
 endfacet
 facet normal -1.233581e-16 -1.000000e+00  8.223874e-17
   outer loop
     vertex  4.400000e+00 -1.400000e+00  1.600000e+00
     vertex  9.000000e+00 -1.400000e+00  4.000000e-01
     vertex  8.000000e+00 -1.400000e+00  1.600000e+00
   endloop
 endfacet
 facet normal -1.233581e-16 -1.000000e+00 -0.000000e+00
   outer loop
     vertex  4.400000e+00 -1.400000e+00  6.800000e+00
     vertex  4.400000e+00 -1.400000e+00  2.600000e+00
     vertex  8.000000e+00 -1.400000e+00  2.600000e+00
   endloop
 endfacet
 facet normal -1.460820e-16 -1.000000e+00 -1.947760e-17
   outer loop
     vertex  4.400000e+00 -1.400000e+00  6.800000e+00
     vertex  8.000000e+00 -1.400000e+00  2.600000e+00
     vertex  1.200000e+01 -1.400000e+00  6.800000e+00
   endloop
 endfacet
 facet normal -1.233581e-16 -1.000000e+00 -8.223874e-17
   outer loop
     vertex -8.000000e+00 -1.400000e+00  1.600000e+00
     vertex -9.000000e+00 -1.400000e+00  4.000000e-01
     vertex -4.400000e+00 -1.400000e+00  1.600000e+00
   endloop
 endfacet
 facet normal -1.233581e-16 -1.000000e+00  5.217334e-32
   outer loop
     vertex -4.400000e+00 -1.400000e+00  6.800000e+00
     vertex -8.000000e+00 -1.400000e+00  2.600000e+00
     vertex -4.400000e+00 -1.400000e+00  2.600000e+00
   endloop
 endfacet
 facet normal -2.220446e-16 -1.000000e+00  0.000000e+00
   outer loop
     vertex -9.000000e+00 -1.400000e+00  2.600000e+00
     vertex -8.000000e+00 -1.400000e+00  1.600000e+00
     vertex -8.000000e+00 -1.400000e+00  2.600000e+00
   endloop
 endfacet
 facet normal -2.220446e-16 -1.000000e+00 -0.000000e+00
   outer loop
     vertex -9.000000e+00 -1.400000e+00  2.600000e+00
     vertex -9.000000e+00 -1.400000e+00  4.000000e-01
     vertex -8.000000e+00 -1.400000e+00  1.600000e+00
   endloop
 endfacet
 facet normal -1.110223e-16 -1.000000e+00 -0.000000e+00
   outer loop
     vertex -1.000000e+01 -1.400000e+00  2.600000e+00
     vertex -1.200000e+01 -1.400000e+00  0.000000e+00
     vertex -1.000000e+01 -1.400000e+00  0.000000e+00
   endloop
 endfacet
 facet normal -2.220446e-16 -1.000000e+00 -5.286776e-17
   outer loop
     vertex -1.200000e+01 -1.400000e+00  6.800000e+00
     vertex -1.000000e+01 -1.400000e+00  2.600000e+00
     vertex -9.000000e+00 -1.400000e+00  2.600000e+00
   endloop
 endfacet
 facet normal -1.460820e-16 -1.000000e+00  1.947760e-17
   outer loop
     vertex -1.200000e+01 -1.400000e+00  6.800000e+00
     vertex -8.000000e+00 -1.400000e+00  2.600000e+00
     vertex -4.400000e+00 -1.400000e+00  6.800000e+00
   endloop
 endfacet
 facet normal -2.220446e-16 -1.000000e+00 -5.286776e-17
   outer loop
     vertex -1.200000e+01 -1.400000e+00  6.800000e+00
     vertex -9.000000e+00 -1.400000e+00  2.600000e+00
     vertex -8.000000e+00 -1.400000e+00  2.600000e+00
   endloop
 endfacet
 facet normal -1.110223e-16 -1.000000e+00 -0.000000e+00
   outer loop
     vertex -1.200000e+01 -1.400000e+00  6.800000e+00
     vertex -1.200000e+01 -1.400000e+00  0.000000e+00
     vertex -1.000000e+01 -1.400000e+00  2.600000e+00
   endloop
 endfacet
 facet normal -1.233581e-16 -1.000000e+00  8.223874e-17
   outer loop
     vertex -9.000000e+00 -1.400000e+00  4.000000e-01
     vertex  9.000000e+00 -1.400000e+00  4.000000e-01
     vertex  4.400000e+00 -1.400000e+00  1.600000e+00
   endloop
 endfacet
 facet normal -1.009294e-16 -1.000000e+00 -1.682156e-16
   outer loop
     vertex -9.000000e+00 -1.400000e+00  4.000000e-01
     vertex  4.400000e+00 -1.400000e+00  1.600000e+00
     vertex -4.400000e+00 -1.400000e+00  1.600000e+00
   endloop
 endfacet
 facet normal  0.000000e+00  0.000000e+00 -1.000000e+00
   outer loop
     vertex  1.000000e+01 -1.400000e+00  0.000000e+00
     vertex  1.200000e+01 -1.469576e-15  0.000000e+00
     vertex  1.200000e+01 -1.400000e+00  0.000000e+00
   endloop
 endfacet
 facet normal  0.000000e+00  0.000000e+00 -1.000000e+00
   outer loop
     vertex  4.000000e+00 -3.400000e+00  0.000000e+00
     vertex  1.200000e+01 -1.469576e-15  0.000000e+00
     vertex  1.000000e+01 -1.400000e+00  0.000000e+00
   endloop
 endfacet
 facet normal  0.000000e+00  0.000000e+00 -1.000000e+00
   outer loop
     vertex  4.000000e+00 -3.400000e+00  0.000000e+00
     vertex  1.000000e+01 -1.400000e+00  0.000000e+00
     vertex  8.500000e+00 -3.400000e+00  0.000000e+00
   endloop
 endfacet
 facet normal  0.000000e+00  0.000000e+00 -1.000000e+00
   outer loop
     vertex -8.500000e+00 -3.400000e+00  0.000000e+00
     vertex -1.000000e+01 -1.400000e+00  0.000000e+00
     vertex -4.000000e+00 -3.400000e+00  0.000000e+00
   endloop
 endfacet
 facet normal  0.000000e+00  0.000000e+00 -1.000000e+00
   outer loop
     vertex -1.200000e+01  1.469576e-15  0.000000e+00
     vertex  1.200000e+01 -1.469576e-15  0.000000e+00
     vertex  4.000000e+00 -3.400000e+00  0.000000e+00
   endloop
 endfacet
 facet normal  0.000000e+00  0.000000e+00 -1.000000e+00
   outer loop
     vertex -1.200000e+01  1.469576e-15  0.000000e+00
     vertex  4.000000e+00 -3.400000e+00  0.000000e+00
     vertex -4.000000e+00 -3.400000e+00  0.000000e+00
   endloop
 endfacet
 facet normal  0.000000e+00  0.000000e+00 -1.000000e+00
   outer loop
     vertex -1.200000e+01  1.469576e-15  0.000000e+00
     vertex -4.000000e+00 -3.400000e+00  0.000000e+00
     vertex -1.000000e+01 -1.400000e+00  0.000000e+00
   endloop
 endfacet
 facet normal  0.000000e+00  0.000000e+00 -1.000000e+00
   outer loop
     vertex -1.200000e+01 -1.400000e+00  0.000000e+00
     vertex -1.200000e+01  1.469576e-15  0.000000e+00
     vertex -1.000000e+01 -1.400000e+00  0.000000e+00
   endloop
 endfacet
 facet normal  0.000000e+00  0.000000e+00 -1.000000e+00
   outer loop
     vertex  4.000000e+00 -3.400000e+01  0.000000e+00
     vertex  8.500000e+00 -3.400000e+01  0.000000e+00
     vertex  1.000000e+01 -3.580000e+01  0.000000e+00
   endloop
 endfacet
 facet normal  0.000000e+00  0.000000e+00 -1.000000e+00
   outer loop
     vertex -4.000000e+00 -3.400000e+01  0.000000e+00
     vertex  4.000000e+00 -3.400000e+00  0.000000e+00
     vertex  4.000000e+00 -3.400000e+01  0.000000e+00
   endloop
 endfacet
 facet normal  0.000000e+00  0.000000e+00 -1.000000e+00
   outer loop
     vertex -4.000000e+00 -3.400000e+01  0.000000e+00
     vertex -4.000000e+00 -3.400000e+00  0.000000e+00
     vertex  4.000000e+00 -3.400000e+00  0.000000e+00
   endloop
 endfacet
 facet normal  0.000000e+00  0.000000e+00 -1.000000e+00
   outer loop
     vertex -1.000000e+01 -3.580000e+01  0.000000e+00
     vertex -8.500000e+00 -3.400000e+01  0.000000e+00
     vertex -4.000000e+00 -3.400000e+01  0.000000e+00
   endloop
 endfacet
 facet normal  0.000000e+00 -0.000000e+00 -1.000000e+00
   outer loop
     vertex -1.000000e+01 -1.400000e+00  0.000000e+00
     vertex -8.500000e+00 -3.400000e+01  0.000000e+00
     vertex -1.000000e+01 -3.580000e+01  0.000000e+00
   endloop
 endfacet
 facet normal  0.000000e+00  0.000000e+00 -1.000000e+00
   outer loop
     vertex -1.000000e+01 -1.400000e+00  0.000000e+00
     vertex -8.500000e+00 -3.400000e+00  0.000000e+00
     vertex -8.500000e+00 -3.400000e+01  0.000000e+00
   endloop
 endfacet
 facet normal  0.000000e+00  0.000000e+00 -1.000000e+00
   outer loop
     vertex -1.000000e+01 -3.580000e+01  0.000000e+00
     vertex  4.000000e+00 -3.400000e+01  0.000000e+00
     vertex  1.000000e+01 -3.580000e+01  0.000000e+00
   endloop
 endfacet
 facet normal  0.000000e+00  0.000000e+00 -1.000000e+00
   outer loop
     vertex -1.000000e+01 -3.580000e+01  0.000000e+00
     vertex -4.000000e+00 -3.400000e+01  0.000000e+00
     vertex  4.000000e+00 -3.400000e+01  0.000000e+00
   endloop
 endfacet
 facet normal  0.000000e+00  0.000000e+00 -1.000000e+00
   outer loop
     vertex  1.000000e+01 -3.580000e+01  0.000000e+00
     vertex  8.500000e+00 -3.400000e+00  0.000000e+00
     vertex  1.000000e+01 -1.400000e+00  0.000000e+00
   endloop
 endfacet
 facet normal  0.000000e+00  0.000000e+00 -1.000000e+00
   outer loop
     vertex  1.000000e+01 -3.580000e+01  0.000000e+00
     vertex  8.500000e+00 -3.400000e+01  0.000000e+00
     vertex  8.500000e+00 -3.400000e+00  0.000000e+00
   endloop
 endfacet
 facet normal -1.000000e+00  0.000000e+00 -0.000000e+00
   outer loop
     vertex -1.200000e+01  1.469576e-15  6.800000e+00
     vertex -1.200000e+01  1.469576e-15  0.000000e+00
     vertex -1.200000e+01 -1.400000e+00  0.000000e+00
   endloop
 endfacet
 facet normal -1.000000e+00 -0.000000e+00  0.000000e+00
   outer loop
     vertex -1.200000e+01  1.469576e-15  6.800000e+00
     vertex -1.200000e+01 -1.400000e+00  0.000000e+00
     vertex -1.200000e+01 -1.400000e+00  6.800000e+00
   endloop
 endfacet
 facet normal  9.267633e-32  6.344132e-16  1.000000e+00
   outer loop
     vertex -1.200000e+01 -1.400000e+00  6.800000e+00
     vertex -4.400000e+00 -1.400000e+00  6.800000e+00
     vertex -4.400000e+00  5.388446e-16  6.800000e+00
   endloop
 endfacet
 facet normal  1.168656e-16 -0.000000e+00  1.000000e+00
   outer loop
     vertex -1.200000e+01 -1.400000e+00  6.800000e+00
     vertex -4.400000e+00  5.388446e-16  6.800000e+00
     vertex -1.200000e+01  1.469576e-15  6.800000e+00
   endloop
 endfacet
 facet normal  1.000000e+00  0.000000e+00  0.000000e+00
   outer loop
     vertex -4.400000e+00 -1.400000e+00  2.600000e+00
     vertex -4.400000e+00 -1.600000e+00  1.800000e+00
     vertex -4.400000e+00 -1.400000e+00  1.600000e+00
   endloop
 endfacet
 facet normal  1.000000e+00  0.000000e+00  0.000000e+00
   outer loop
     vertex -4.400000e+00 -1.400000e+00  2.600000e+00
     vertex -4.400000e+00 -1.600000e+00  2.400000e+00
     vertex -4.400000e+00 -1.600000e+00  1.800000e+00
   endloop
 endfacet
 facet normal  1.000000e+00  0.000000e+00  0.000000e+00
   outer loop
     vertex -4.400000e+00  5.388446e-16  1.600000e+00
     vertex -4.400000e+00 -1.400000e+00  2.600000e+00
     vertex -4.400000e+00 -1.400000e+00  1.600000e+00
   endloop
 endfacet
 facet normal  1.000000e+00  6.344132e-16 -4.229421e-16
   outer loop
     vertex -4.400000e+00  5.388446e-16  6.800000e+00
     vertex -4.400000e+00 -1.400000e+00  6.800000e+00
     vertex -4.400000e+00 -1.400000e+00  2.600000e+00
   endloop
 endfacet
 facet normal  1.000000e+00 -1.220025e-16 -1.708035e-16
   outer loop
     vertex -4.400000e+00  5.388446e-16  6.800000e+00
     vertex -4.400000e+00 -1.400000e+00  2.600000e+00
     vertex -4.400000e+00  5.388446e-16  1.600000e+00
   endloop
 endfacet
 facet normal -0.000000e+00  0.000000e+00  1.000000e+00
   outer loop
     vertex -4.400000e+00 -1.400000e+00  1.600000e+00
     vertex  4.400000e+00 -1.400000e+00  1.600000e+00
     vertex  4.400000e+00 -5.388446e-16  1.600000e+00
   endloop
 endfacet
 facet normal  0.000000e+00  0.000000e+00  1.000000e+00
   outer loop
     vertex -4.400000e+00 -1.400000e+00  1.600000e+00
     vertex  4.400000e+00 -5.388446e-16  1.600000e+00
     vertex -4.400000e+00  5.388446e-16  1.600000e+00
   endloop
 endfacet
 facet normal -1.000000e+00  0.000000e+00 -0.000000e+00
   outer loop
     vertex  4.400000e+00 -1.400000e+00  2.600000e+00
     vertex  4.400000e+00 -1.400000e+00  1.600000e+00
     vertex  4.400000e+00 -1.600000e+00  1.800000e+00
   endloop
 endfacet
 facet normal -1.000000e+00  0.000000e+00  0.000000e+00
   outer loop
     vertex  4.400000e+00 -1.400000e+00  2.600000e+00
     vertex  4.400000e+00 -1.600000e+00  1.800000e+00
     vertex  4.400000e+00 -1.600000e+00  2.400000e+00
   endloop
 endfacet
 facet normal -1.000000e+00  0.000000e+00  0.000000e+00
   outer loop
     vertex  4.400000e+00 -5.388446e-16  1.600000e+00
     vertex  4.400000e+00 -1.400000e+00  1.600000e+00
     vertex  4.400000e+00 -1.400000e+00  2.600000e+00
   endloop
 endfacet
 facet normal -1.000000e+00 -0.000000e+00  0.000000e+00
   outer loop
     vertex  4.400000e+00 -5.388446e-16  6.800000e+00
     vertex  4.400000e+00 -1.400000e+00  2.600000e+00
     vertex  4.400000e+00 -1.400000e+00  6.800000e+00
   endloop
 endfacet
 facet normal -1.000000e+00  0.000000e+00 -0.000000e+00
   outer loop
     vertex  4.400000e+00 -5.388446e-16  6.800000e+00
     vertex  4.400000e+00 -5.388446e-16  1.600000e+00
     vertex  4.400000e+00 -1.400000e+00  2.600000e+00
   endloop
 endfacet
 facet normal  1.000000e+00 -1.032766e-16  0.000000e+00
   outer loop
     vertex  1.000000e+01 -1.400000e+00  2.600000e+00
     vertex  1.000000e+01 -3.580000e+01  0.000000e+00
     vertex  1.000000e+01 -1.400000e+00  0.000000e+00
   endloop
 endfacet
 facet normal  1.000000e+00 -1.032766e-16  0.000000e+00
   outer loop
     vertex  1.000000e+01 -1.400000e+00  2.600000e+00
     vertex  1.000000e+01 -3.580000e+01  2.600000e+00
     vertex  1.000000e+01 -3.580000e+01  0.000000e+00
   endloop
 endfacet
 facet normal  0.000000e+00  0.000000e+00  1.000000e+00
   outer loop
     vertex  9.000000e+00 -3.440000e+01  2.600000e+00
     vertex  1.000000e+01 -1.400000e+00  2.600000e+00
     vertex  9.000000e+00 -1.400000e+00  2.600000e+00
   endloop
 endfacet
 facet normal  0.000000e+00 -0.000000e+00  1.000000e+00
   outer loop
     vertex  1.000000e+01 -3.580000e+01  2.600000e+00
     vertex  1.000000e+01 -1.400000e+00  2.600000e+00
     vertex  9.000000e+00 -3.440000e+01  2.600000e+00
   endloop
 endfacet
 facet normal -0.000000e+00  0.000000e+00  1.000000e+00
   outer loop
     vertex  5.300000e+00 -3.440000e+01  2.600000e+00
     vertex  1.000000e+01 -3.580000e+01  2.600000e+00
     vertex  9.000000e+00 -3.440000e+01  2.600000e+00
   endloop
 endfacet
 facet normal  0.000000e+00 -0.000000e+00  1.000000e+00
   outer loop
     vertex -9.000000e+00 -3.440000e+01  2.600000e+00
     vertex -9.000000e+00 -1.400000e+00  2.600000e+00
     vertex -1.000000e+01 -1.400000e+00  2.600000e+00
   endloop
 endfacet
 facet normal  0.000000e+00  0.000000e+00  1.000000e+00
   outer loop
     vertex -1.000000e+01 -3.580000e+01  2.600000e+00
     vertex -5.300000e+00 -3.440000e+01  2.600000e+00
     vertex -9.000000e+00 -3.440000e+01  2.600000e+00
   endloop
 endfacet
 facet normal  0.000000e+00  0.000000e+00  1.000000e+00
   outer loop
     vertex -1.000000e+01 -3.580000e+01  2.600000e+00
     vertex -9.000000e+00 -3.440000e+01  2.600000e+00
     vertex -1.000000e+01 -1.400000e+00  2.600000e+00
   endloop
 endfacet
 facet normal  0.000000e+00  0.000000e+00  1.000000e+00
   outer loop
     vertex -1.000000e+01 -3.580000e+01  2.600000e+00
     vertex  1.000000e+01 -3.580000e+01  2.600000e+00
     vertex  5.300000e+00 -3.440000e+01  2.600000e+00
   endloop
 endfacet
 facet normal  0.000000e+00  0.000000e+00  1.000000e+00
   outer loop
     vertex -1.000000e+01 -3.580000e+01  2.600000e+00
     vertex  5.300000e+00 -3.440000e+01  2.600000e+00
     vertex -5.300000e+00 -3.440000e+01  2.600000e+00
   endloop
 endfacet
 facet normal -1.000000e+00  1.076580e-16  0.000000e+00
   outer loop
     vertex  9.000000e+00 -1.400000e+00  2.600000e+00
     vertex  9.000000e+00 -1.400000e+00  4.000000e-01
     vertex  9.000000e+00 -3.440000e+01  4.000000e-01
   endloop
 endfacet
 facet normal -1.000000e+00  1.076580e-16  0.000000e+00
   outer loop
     vertex  9.000000e+00 -1.400000e+00  2.600000e+00
     vertex  9.000000e+00 -3.440000e+01  4.000000e-01
     vertex  9.000000e+00 -3.440000e+01  2.600000e+00
   endloop
 endfacet
 facet normal -0.000000e+00  0.000000e+00  1.000000e+00
   outer loop
     vertex  4.000000e+00 -3.400000e+00  4.000000e-01
     vertex  8.500000e+00 -3.400000e+00  4.000000e-01
     vertex  9.000000e+00 -1.400000e+00  4.000000e-01
   endloop
 endfacet
 facet normal  0.000000e+00  0.000000e+00  1.000000e+00
   outer loop
     vertex -9.000000e+00 -1.400000e+00  4.000000e-01
     vertex  4.000000e+00 -3.400000e+00  4.000000e-01
     vertex  9.000000e+00 -1.400000e+00  4.000000e-01
   endloop
 endfacet
 facet normal  0.000000e+00  0.000000e+00  1.000000e+00
   outer loop
     vertex -9.000000e+00 -1.400000e+00  4.000000e-01
     vertex -4.000000e+00 -3.400000e+00  4.000000e-01
     vertex  4.000000e+00 -3.400000e+00  4.000000e-01
   endloop
 endfacet
 facet normal -0.000000e+00 -0.000000e+00  1.000000e+00
   outer loop
     vertex -8.500000e+00 -3.400000e+00  4.000000e-01
     vertex -4.000000e+00 -3.400000e+00  4.000000e-01
     vertex -9.000000e+00 -1.400000e+00  4.000000e-01
   endloop
 endfacet
 facet normal -0.000000e+00  0.000000e+00  1.000000e+00
   outer loop
     vertex  8.500000e+00 -3.400000e+01  4.000000e-01
     vertex  9.000000e+00 -3.440000e+01  4.000000e-01
     vertex  8.500000e+00 -3.400000e+00  4.000000e-01
   endloop
 endfacet
 facet normal -0.000000e+00  0.000000e+00  1.000000e+00
   outer loop
     vertex  4.000000e+00 -3.400000e+01  4.000000e-01
     vertex  9.000000e+00 -3.440000e+01  4.000000e-01
     vertex  8.500000e+00 -3.400000e+01  4.000000e-01
   endloop
 endfacet
 facet normal  0.000000e+00  0.000000e+00  1.000000e+00
   outer loop
     vertex -4.000000e+00 -3.400000e+01  4.000000e-01
     vertex  4.000000e+00 -3.400000e+01  4.000000e-01
     vertex  4.000000e+00 -3.400000e+00  4.000000e-01
   endloop
 endfacet
 facet normal  0.000000e+00  0.000000e+00  1.000000e+00
   outer loop
     vertex -4.000000e+00 -3.400000e+01  4.000000e-01
     vertex  4.000000e+00 -3.400000e+00  4.000000e-01
     vertex -4.000000e+00 -3.400000e+00  4.000000e-01
   endloop
 endfacet
 facet normal  0.000000e+00  0.000000e+00  1.000000e+00
   outer loop
     vertex -9.000000e+00 -3.440000e+01  4.000000e-01
     vertex -4.000000e+00 -3.400000e+01  4.000000e-01
     vertex -8.500000e+00 -3.400000e+01  4.000000e-01
   endloop
 endfacet
 facet normal  0.000000e+00  0.000000e+00  1.000000e+00
   outer loop
     vertex -9.000000e+00 -3.440000e+01  4.000000e-01
     vertex -8.500000e+00 -3.400000e+01  4.000000e-01
     vertex -8.500000e+00 -3.400000e+00  4.000000e-01
   endloop
 endfacet
 facet normal  0.000000e+00 -0.000000e+00  1.000000e+00
   outer loop
     vertex  9.000000e+00 -3.440000e+01  4.000000e-01
     vertex  9.000000e+00 -1.400000e+00  4.000000e-01
     vertex  8.500000e+00 -3.400000e+00  4.000000e-01
   endloop
 endfacet
 facet normal  0.000000e+00  0.000000e+00  1.000000e+00
   outer loop
     vertex -9.000000e+00 -1.400000e+00  4.000000e-01
     vertex -9.000000e+00 -3.440000e+01  4.000000e-01
     vertex -8.500000e+00 -3.400000e+00  4.000000e-01
   endloop
 endfacet
 facet normal  0.000000e+00  0.000000e+00  1.000000e+00
   outer loop
     vertex -9.000000e+00 -3.440000e+01  4.000000e-01
     vertex  9.000000e+00 -3.440000e+01  4.000000e-01
     vertex  4.000000e+00 -3.400000e+01  4.000000e-01
   endloop
 endfacet
 facet normal  0.000000e+00  0.000000e+00  1.000000e+00
   outer loop
     vertex -9.000000e+00 -3.440000e+01  4.000000e-01
     vertex  4.000000e+00 -3.400000e+01  4.000000e-01
     vertex -4.000000e+00 -3.400000e+01  4.000000e-01
   endloop
 endfacet
 facet normal  1.000000e+00 -1.076580e-16  0.000000e+00
   outer loop
     vertex -9.000000e+00 -1.400000e+00  2.600000e+00
     vertex -9.000000e+00 -3.440000e+01  4.000000e-01
     vertex -9.000000e+00 -1.400000e+00  4.000000e-01
   endloop
 endfacet
 facet normal  1.000000e+00 -1.076580e-16  0.000000e+00
   outer loop
     vertex -9.000000e+00 -1.400000e+00  2.600000e+00
     vertex -9.000000e+00 -3.440000e+01  2.600000e+00
     vertex -9.000000e+00 -3.440000e+01  4.000000e-01
   endloop
 endfacet
 facet normal -1.000000e+00  1.032766e-16  0.000000e+00
   outer loop
     vertex -1.000000e+01 -1.400000e+00  0.000000e+00
     vertex -1.000000e+01 -3.580000e+01  0.000000e+00
     vertex -1.000000e+01 -3.580000e+01  2.600000e+00
   endloop
 endfacet
 facet normal -1.000000e+00  1.032766e-16  0.000000e+00
   outer loop
     vertex -1.000000e+01 -1.400000e+00  2.600000e+00
     vertex -1.000000e+01 -1.400000e+00  0.000000e+00
     vertex -1.000000e+01 -3.580000e+01  2.600000e+00
   endloop
 endfacet
 facet normal -8.859029e-17 -7.071068e-01  7.071068e-01
   outer loop
     vertex -4.400000e+00 -1.400000e+00  2.600000e+00
     vertex -8.000000e+00 -1.600000e+00  2.400000e+00
     vertex -4.400000e+00 -1.600000e+00  2.400000e+00
   endloop
 endfacet
 facet normal -8.722736e-17 -7.071068e-01  7.071068e-01
   outer loop
     vertex -4.400000e+00 -1.400000e+00  2.600000e+00
     vertex -8.000000e+00 -1.400000e+00  2.600000e+00
     vertex -8.000000e+00 -1.600000e+00  2.400000e+00
   endloop
 endfacet
 facet normal -1.000000e+00  0.000000e+00 -0.000000e+00
   outer loop
     vertex -8.000000e+00 -1.400000e+00  2.600000e+00
     vertex -8.000000e+00 -1.400000e+00  1.600000e+00
     vertex -8.000000e+00 -1.600000e+00  1.800000e+00
   endloop
 endfacet
 facet normal -1.000000e+00  0.000000e+00  0.000000e+00
   outer loop
     vertex -8.000000e+00 -1.400000e+00  2.600000e+00
     vertex -8.000000e+00 -1.600000e+00  1.800000e+00
     vertex -8.000000e+00 -1.600000e+00  2.400000e+00
   endloop
 endfacet
 facet normal -8.859029e-17 -7.071068e-01 -7.071068e-01
   outer loop
     vertex -4.400000e+00 -1.600000e+00  1.800000e+00
     vertex -8.000000e+00 -1.400000e+00  1.600000e+00
     vertex -4.400000e+00 -1.400000e+00  1.600000e+00
   endloop
 endfacet
 facet normal -8.722736e-17 -7.071068e-01 -7.071068e-01
   outer loop
     vertex -4.400000e+00 -1.600000e+00  1.800000e+00
     vertex -8.000000e+00 -1.600000e+00  1.800000e+00
     vertex -8.000000e+00 -1.400000e+00  1.600000e+00
   endloop
 endfacet
 facet normal -8.859029e-17 -7.071068e-01 -7.071068e-01
   outer loop
     vertex  8.000000e+00 -1.600000e+00  1.800000e+00
     vertex  4.400000e+00 -1.400000e+00  1.600000e+00
     vertex  8.000000e+00 -1.400000e+00  1.600000e+00
   endloop
 endfacet
 facet normal -8.722736e-17 -7.071068e-01 -7.071068e-01
   outer loop
     vertex  8.000000e+00 -1.600000e+00  1.800000e+00
     vertex  4.400000e+00 -1.600000e+00  1.800000e+00
     vertex  4.400000e+00 -1.400000e+00  1.600000e+00
   endloop
 endfacet
 facet normal  1.000000e+00  0.000000e+00  0.000000e+00
   outer loop
     vertex  8.000000e+00 -1.400000e+00  2.600000e+00
     vertex  8.000000e+00 -1.600000e+00  1.800000e+00
     vertex  8.000000e+00 -1.400000e+00  1.600000e+00
   endloop
 endfacet
 facet normal  1.000000e+00  0.000000e+00  0.000000e+00
   outer loop
     vertex  8.000000e+00 -1.400000e+00  2.600000e+00
     vertex  8.000000e+00 -1.600000e+00  2.400000e+00
     vertex  8.000000e+00 -1.600000e+00  1.800000e+00
   endloop
 endfacet
 facet normal -8.859029e-17 -7.071068e-01  7.071068e-01
   outer loop
     vertex  8.000000e+00 -1.400000e+00  2.600000e+00
     vertex  4.400000e+00 -1.600000e+00  2.400000e+00
     vertex  8.000000e+00 -1.600000e+00  2.400000e+00
   endloop
 endfacet
 facet normal -8.722736e-17 -7.071068e-01  7.071068e-01
   outer loop
     vertex  8.000000e+00 -1.400000e+00  2.600000e+00
     vertex  4.400000e+00 -1.400000e+00  2.600000e+00
     vertex  4.400000e+00 -1.600000e+00  2.400000e+00
   endloop
 endfacet
 facet normal  0.000000e+00 -1.000000e+00  0.000000e+00
   outer loop
     vertex -1.000000e+01 -3.580000e+01  2.600000e+00
     vertex -1.000000e+01 -3.580000e+01  0.000000e+00
     vertex  1.000000e+01 -3.580000e+01  0.000000e+00
   endloop
 endfacet
 facet normal  0.000000e+00 -1.000000e+00  0.000000e+00
   outer loop
     vertex -1.000000e+01 -3.580000e+01  2.600000e+00
     vertex  1.000000e+01 -3.580000e+01  0.000000e+00
     vertex  1.000000e+01 -3.580000e+01  2.600000e+00
   endloop
 endfacet
 facet normal -1.000000e+00  1.161018e-16  0.000000e+00
   outer loop
     vertex  8.500000e+00 -3.400000e+00  0.000000e+00
     vertex  8.500000e+00 -3.400000e+01  0.000000e+00
     vertex  8.500000e+00 -3.400000e+01  4.000000e-01
   endloop
 endfacet
 facet normal -1.000000e+00  1.161018e-16  0.000000e+00
   outer loop
     vertex  8.500000e+00 -3.400000e+00  4.000000e-01
     vertex  8.500000e+00 -3.400000e+00  0.000000e+00
     vertex  8.500000e+00 -3.400000e+01  4.000000e-01
   endloop
 endfacet
 facet normal  0.000000e+00  1.000000e+00  0.000000e+00
   outer loop
     vertex  4.000000e+00 -3.400000e+01  4.000000e-01
     vertex  8.500000e+00 -3.400000e+01  0.000000e+00
     vertex  4.000000e+00 -3.400000e+01  0.000000e+00
   endloop
 endfacet
 facet normal -0.000000e+00  1.000000e+00  0.000000e+00
   outer loop
     vertex  4.000000e+00 -3.400000e+01  4.000000e-01
     vertex  8.500000e+00 -3.400000e+01  4.000000e-01
     vertex  8.500000e+00 -3.400000e+01  0.000000e+00
   endloop
 endfacet
 facet normal  0.000000e+00 -1.000000e+00  0.000000e+00
   outer loop
     vertex  4.000000e+00 -3.400000e+00  4.000000e-01
     vertex  4.000000e+00 -3.400000e+00  0.000000e+00
     vertex  8.500000e+00 -3.400000e+00  0.000000e+00
   endloop
 endfacet
 facet normal  0.000000e+00 -1.000000e+00  0.000000e+00
   outer loop
     vertex  4.000000e+00 -3.400000e+00  4.000000e-01
     vertex  8.500000e+00 -3.400000e+00  0.000000e+00
     vertex  8.500000e+00 -3.400000e+00  4.000000e-01
   endloop
 endfacet
 facet normal  1.000000e+00 -1.161018e-16  0.000000e+00
   outer loop
     vertex  4.000000e+00 -3.400000e+00  0.000000e+00
     vertex  4.000000e+00 -3.400000e+01  4.000000e-01
     vertex  4.000000e+00 -3.400000e+01  0.000000e+00
   endloop
 endfacet
 facet normal  1.000000e+00 -1.161018e-16  0.000000e+00
   outer loop
     vertex  4.000000e+00 -3.400000e+00  4.000000e-01
     vertex  4.000000e+00 -3.400000e+01  4.000000e-01
     vertex  4.000000e+00 -3.400000e+00  0.000000e+00
   endloop
 endfacet
 facet normal -1.000000e+00  1.161018e-16  0.000000e+00
   outer loop
     vertex -4.000000e+00 -3.400000e+00  4.000000e-01
     vertex -4.000000e+00 -3.400000e+00  0.000000e+00
     vertex -4.000000e+00 -3.400000e+01  0.000000e+00
   endloop
 endfacet
 facet normal -1.000000e+00  1.161018e-16  0.000000e+00
   outer loop
     vertex -4.000000e+00 -3.400000e+00  4.000000e-01
     vertex -4.000000e+00 -3.400000e+01  0.000000e+00
     vertex -4.000000e+00 -3.400000e+01  4.000000e-01
   endloop
 endfacet
 facet normal  0.000000e+00 -1.000000e+00  0.000000e+00
   outer loop
     vertex -8.500000e+00 -3.400000e+00  4.000000e-01
     vertex -8.500000e+00 -3.400000e+00  0.000000e+00
     vertex -4.000000e+00 -3.400000e+00  0.000000e+00
   endloop
 endfacet
 facet normal  0.000000e+00 -1.000000e+00  0.000000e+00
   outer loop
     vertex -8.500000e+00 -3.400000e+00  4.000000e-01
     vertex -4.000000e+00 -3.400000e+00  0.000000e+00
     vertex -4.000000e+00 -3.400000e+00  4.000000e-01
   endloop
 endfacet
 facet normal  1.000000e+00 -1.161018e-16  0.000000e+00
   outer loop
     vertex -8.500000e+00 -3.400000e+00  4.000000e-01
     vertex -8.500000e+00 -3.400000e+01  0.000000e+00
     vertex -8.500000e+00 -3.400000e+00  0.000000e+00
   endloop
 endfacet
 facet normal  1.000000e+00 -1.161018e-16  0.000000e+00
   outer loop
     vertex -8.500000e+00 -3.400000e+00  4.000000e-01
     vertex -8.500000e+00 -3.400000e+01  4.000000e-01
     vertex -8.500000e+00 -3.400000e+01  0.000000e+00
   endloop
 endfacet
 facet normal  0.000000e+00  1.000000e+00  0.000000e+00
   outer loop
     vertex -8.500000e+00 -3.400000e+01  4.000000e-01
     vertex -4.000000e+00 -3.400000e+01  0.000000e+00
     vertex -8.500000e+00 -3.400000e+01  0.000000e+00
   endloop
 endfacet
 facet normal -0.000000e+00  1.000000e+00  0.000000e+00
   outer loop
     vertex -8.500000e+00 -3.400000e+01  4.000000e-01
     vertex -4.000000e+00 -3.400000e+01  4.000000e-01
     vertex -4.000000e+00 -3.400000e+01  0.000000e+00
   endloop
 endfacet
 facet normal -1.233581e-16 -1.000000e+00 -0.000000e+00
   outer loop
     vertex -4.400000e+00 -1.600000e+00  2.400000e+00
     vertex -8.000000e+00 -1.600000e+00  1.800000e+00
     vertex -4.400000e+00 -1.600000e+00  1.800000e+00
   endloop
 endfacet
 facet normal -1.233581e-16 -1.000000e+00  0.000000e+00
   outer loop
     vertex -4.400000e+00 -1.600000e+00  2.400000e+00
     vertex -8.000000e+00 -1.600000e+00  2.400000e+00
     vertex -8.000000e+00 -1.600000e+00  1.800000e+00
   endloop
 endfacet
 facet normal -1.233581e-16 -1.000000e+00 -0.000000e+00
   outer loop
     vertex  8.000000e+00 -1.600000e+00  2.400000e+00
     vertex  4.400000e+00 -1.600000e+00  1.800000e+00
     vertex  8.000000e+00 -1.600000e+00  1.800000e+00
   endloop
 endfacet
 facet normal -1.233581e-16 -1.000000e+00  0.000000e+00
   outer loop
     vertex  8.000000e+00 -1.600000e+00  2.400000e+00
     vertex  4.400000e+00 -1.600000e+00  2.400000e+00
     vertex  4.400000e+00 -1.600000e+00  1.800000e+00
   endloop
 endfacet
 facet normal -0.000000e+00  1.000000e+00  0.000000e+00
   outer loop
     vertex  5.300000e+00 -3.440000e+01  1.600000e+00
     vertex  9.000000e+00 -3.440000e+01  2.600000e+00
     vertex  9.000000e+00 -3.440000e+01  4.000000e-01
   endloop
 endfacet
 facet normal -0.000000e+00  1.000000e+00  0.000000e+00
   outer loop
     vertex  5.300000e+00 -3.440000e+01  2.600000e+00
     vertex  9.000000e+00 -3.440000e+01  2.600000e+00
     vertex  5.300000e+00 -3.440000e+01  1.600000e+00
   endloop
 endfacet
 facet normal -0.000000e+00  1.000000e+00  0.000000e+00
   outer loop
     vertex -9.000000e+00 -3.440000e+01  2.600000e+00
     vertex -5.300000e+00 -3.440000e+01  2.600000e+00
     vertex -5.300000e+00 -3.440000e+01  1.600000e+00
   endloop
 endfacet
 facet normal  0.000000e+00  1.000000e+00  0.000000e+00
   outer loop
     vertex -9.000000e+00 -3.440000e+01  2.600000e+00
     vertex -5.300000e+00 -3.440000e+01  1.600000e+00
     vertex -9.000000e+00 -3.440000e+01  4.000000e-01
   endloop
 endfacet
 facet normal  0.000000e+00  1.000000e+00  0.000000e+00
   outer loop
     vertex -9.000000e+00 -3.440000e+01  4.000000e-01
     vertex  5.300000e+00 -3.440000e+01  1.600000e+00
     vertex  9.000000e+00 -3.440000e+01  4.000000e-01
   endloop
 endfacet
 facet normal  0.000000e+00  1.000000e+00  0.000000e+00
   outer loop
     vertex -9.000000e+00 -3.440000e+01  4.000000e-01
     vertex -5.300000e+00 -3.440000e+01  1.600000e+00
     vertex  5.300000e+00 -3.440000e+01  1.600000e+00
   endloop
 endfacet
 facet normal  0.000000e+00  7.071068e-01  7.071068e-01
   outer loop
     vertex  5.300000e+00 -3.440000e+01  2.600000e+00
     vertex  5.300000e+00 -3.420000e+01  2.400000e+00
     vertex -5.300000e+00 -3.420000e+01  2.400000e+00
   endloop
 endfacet
 facet normal  0.000000e+00  7.071068e-01  7.071068e-01
   outer loop
     vertex  5.300000e+00 -3.440000e+01  2.600000e+00
     vertex -5.300000e+00 -3.420000e+01  2.400000e+00
     vertex -5.300000e+00 -3.440000e+01  2.600000e+00
   endloop
 endfacet
 facet normal -1.000000e+00  0.000000e+00 -0.000000e+00
   outer loop
     vertex -5.300000e+00 -3.420000e+01  2.400000e+00
     vertex -5.300000e+00 -3.420000e+01  1.800000e+00
     vertex -5.300000e+00 -3.440000e+01  1.600000e+00
   endloop
 endfacet
 facet normal -1.000000e+00 -0.000000e+00  0.000000e+00
   outer loop
     vertex -5.300000e+00 -3.420000e+01  2.400000e+00
     vertex -5.300000e+00 -3.440000e+01  1.600000e+00
     vertex -5.300000e+00 -3.440000e+01  2.600000e+00
   endloop
 endfacet
 facet normal  0.000000e+00  7.071068e-01 -7.071068e-01
   outer loop
     vertex  5.300000e+00 -3.420000e+01  1.800000e+00
     vertex  5.300000e+00 -3.440000e+01  1.600000e+00
     vertex -5.300000e+00 -3.440000e+01  1.600000e+00
   endloop
 endfacet
 facet normal  0.000000e+00  7.071068e-01 -7.071068e-01
   outer loop
     vertex  5.300000e+00 -3.420000e+01  1.800000e+00
     vertex -5.300000e+00 -3.440000e+01  1.600000e+00
     vertex -5.300000e+00 -3.420000e+01  1.800000e+00
   endloop
 endfacet
 facet normal  1.000000e+00  0.000000e+00  0.000000e+00
   outer loop
     vertex  5.300000e+00 -3.420000e+01  2.400000e+00
     vertex  5.300000e+00 -3.440000e+01  1.600000e+00
     vertex  5.300000e+00 -3.420000e+01  1.800000e+00
   endloop
 endfacet
 facet normal  1.000000e+00  0.000000e+00  0.000000e+00
   outer loop
     vertex  5.300000e+00 -3.420000e+01  2.400000e+00
     vertex  5.300000e+00 -3.440000e+01  2.600000e+00
     vertex  5.300000e+00 -3.440000e+01  1.600000e+00
   endloop
 endfacet
 facet normal  0.000000e+00  1.000000e+00  0.000000e+00
   outer loop
     vertex  5.300000e+00 -3.420000e+01  2.400000e+00
     vertex  5.300000e+00 -3.420000e+01  1.800000e+00
     vertex -5.300000e+00 -3.420000e+01  1.800000e+00
   endloop
 endfacet
 facet normal  0.000000e+00  1.000000e+00  0.000000e+00
   outer loop
     vertex  5.300000e+00 -3.420000e+01  2.400000e+00
     vertex -5.300000e+00 -3.420000e+01  1.800000e+00
     vertex -5.300000e+00 -3.420000e+01  2.400000e+00
   endloop
 endfacet
endsolid
