solid
 facet normal  1.224647e-16  1.000000e+00  0.000000e+00
   outer loop
     vertex  4.400000e+00 -5.388446e-16  1.600000e+00
     vertex  1.210000e+01 -1.481823e-15  4.700000e+00
     vertex  1.210000e+01 -1.481823e-15  0.000000e+00
   endloop
 endfacet
 facet normal  1.224647e-16  1.000000e+00  0.000000e+00
   outer loop
     vertex  4.400000e+00 -5.388446e-16  4.700000e+00
     vertex  1.210000e+01 -1.481823e-15  4.700000e+00
     vertex  4.400000e+00 -5.388446e-16  1.600000e+00
   endloop
 endfacet
 facet normal  1.224647e-16  1.000000e+00  0.000000e+00
   outer loop
     vertex -1.210000e+01  1.481823e-15  4.700000e+00
     vertex -4.400000e+00  5.388446e-16  4.700000e+00
     vertex -4.400000e+00  5.388446e-16  1.600000e+00
   endloop
 endfacet
 facet normal  1.224647e-16  1.000000e+00  0.000000e+00
   outer loop
     vertex -1.210000e+01  1.481823e-15  4.700000e+00
     vertex -4.400000e+00  5.388446e-16  1.600000e+00
     vertex -1.210000e+01  1.481823e-15  0.000000e+00
   endloop
 endfacet
 facet normal  1.224647e-16  1.000000e+00  0.000000e+00
   outer loop
     vertex -1.210000e+01  1.481823e-15  0.000000e+00
     vertex  4.400000e+00 -5.388446e-16  1.600000e+00
     vertex  1.210000e+01 -1.481823e-15  0.000000e+00
   endloop
 endfacet
 facet normal  1.224647e-16  1.000000e+00  0.000000e+00
   outer loop
     vertex -1.210000e+01  1.481823e-15  0.000000e+00
     vertex -4.400000e+00  5.388446e-16  1.600000e+00
     vertex  4.400000e+00 -5.388446e-16  1.600000e+00
   endloop
 endfacet
 facet normal  0.000000e+00  0.000000e+00 -1.000000e+00
   outer loop
     vertex  1.010000e+01 -1.400000e+00  0.000000e+00
     vertex  1.210000e+01 -1.481823e-15  0.000000e+00
     vertex  1.210000e+01 -1.400000e+00  0.000000e+00
   endloop
 endfacet
 facet normal  0.000000e+00  0.000000e+00 -1.000000e+00
   outer loop
     vertex  4.000000e+00 -3.400000e+00  0.000000e+00
     vertex  1.210000e+01 -1.481823e-15  0.000000e+00
     vertex  1.010000e+01 -1.400000e+00  0.000000e+00
   endloop
 endfacet
 facet normal  0.000000e+00  0.000000e+00 -1.000000e+00
   outer loop
     vertex  4.000000e+00 -3.400000e+00  0.000000e+00
     vertex  1.010000e+01 -1.400000e+00  0.000000e+00
     vertex  8.600000e+00 -3.400000e+00  0.000000e+00
   endloop
 endfacet
 facet normal  0.000000e+00  0.000000e+00 -1.000000e+00
   outer loop
     vertex -8.600000e+00 -3.400000e+00  0.000000e+00
     vertex -1.010000e+01 -1.400000e+00  0.000000e+00
     vertex -4.000000e+00 -3.400000e+00  0.000000e+00
   endloop
 endfacet
 facet normal  0.000000e+00  0.000000e+00 -1.000000e+00
   outer loop
     vertex -1.210000e+01  1.481823e-15  0.000000e+00
     vertex  1.210000e+01 -1.481823e-15  0.000000e+00
     vertex  4.000000e+00 -3.400000e+00  0.000000e+00
   endloop
 endfacet
 facet normal  0.000000e+00  0.000000e+00 -1.000000e+00
   outer loop
     vertex -1.210000e+01  1.481823e-15  0.000000e+00
     vertex  4.000000e+00 -3.400000e+00  0.000000e+00
     vertex -4.000000e+00 -3.400000e+00  0.000000e+00
   endloop
 endfacet
 facet normal  0.000000e+00  0.000000e+00 -1.000000e+00
   outer loop
     vertex -1.210000e+01  1.481823e-15  0.000000e+00
     vertex -4.000000e+00 -3.400000e+00  0.000000e+00
     vertex -1.010000e+01 -1.400000e+00  0.000000e+00
   endloop
 endfacet
 facet normal  0.000000e+00  0.000000e+00 -1.000000e+00
   outer loop
     vertex -1.210000e+01 -1.400000e+00  0.000000e+00
     vertex -1.210000e+01  1.481823e-15  0.000000e+00
     vertex -1.010000e+01 -1.400000e+00  0.000000e+00
   endloop
 endfacet
 facet normal  0.000000e+00  0.000000e+00 -1.000000e+00
   outer loop
     vertex  4.000000e+00 -3.420000e+01  0.000000e+00
     vertex  8.600000e+00 -3.420000e+01  0.000000e+00
     vertex  1.010000e+01 -3.600000e+01  0.000000e+00
   endloop
 endfacet
 facet normal  0.000000e+00  0.000000e+00 -1.000000e+00
   outer loop
     vertex -4.000000e+00 -3.420000e+01  0.000000e+00
     vertex  4.000000e+00 -3.400000e+00  0.000000e+00
     vertex  4.000000e+00 -3.420000e+01  0.000000e+00
   endloop
 endfacet
 facet normal  0.000000e+00  0.000000e+00 -1.000000e+00
   outer loop
     vertex -4.000000e+00 -3.420000e+01  0.000000e+00
     vertex -4.000000e+00 -3.400000e+00  0.000000e+00
     vertex  4.000000e+00 -3.400000e+00  0.000000e+00
   endloop
 endfacet
 facet normal  0.000000e+00  0.000000e+00 -1.000000e+00
   outer loop
     vertex -1.010000e+01 -3.600000e+01  0.000000e+00
     vertex -8.600000e+00 -3.420000e+01  0.000000e+00
     vertex -4.000000e+00 -3.420000e+01  0.000000e+00
   endloop
 endfacet
 facet normal  0.000000e+00  0.000000e+00 -1.000000e+00
   outer loop
     vertex  1.010000e+01 -3.600000e+01  0.000000e+00
     vertex  8.600000e+00 -3.400000e+00  0.000000e+00
     vertex  1.010000e+01 -1.400000e+00  0.000000e+00
   endloop
 endfacet
 facet normal  0.000000e+00  0.000000e+00 -1.000000e+00
   outer loop
     vertex  1.010000e+01 -3.600000e+01  0.000000e+00
     vertex  8.600000e+00 -3.420000e+01  0.000000e+00
     vertex  8.600000e+00 -3.400000e+00  0.000000e+00
   endloop
 endfacet
 facet normal  0.000000e+00 -0.000000e+00 -1.000000e+00
   outer loop
     vertex -1.010000e+01 -1.400000e+00  0.000000e+00
     vertex -8.600000e+00 -3.400000e+00  0.000000e+00
     vertex -1.010000e+01 -3.600000e+01  0.000000e+00
   endloop
 endfacet
 facet normal  0.000000e+00  0.000000e+00 -1.000000e+00
   outer loop
     vertex -8.600000e+00 -3.400000e+00  0.000000e+00
     vertex -8.600000e+00 -3.420000e+01  0.000000e+00
     vertex -1.010000e+01 -3.600000e+01  0.000000e+00
   endloop
 endfacet
 facet normal  0.000000e+00  0.000000e+00 -1.000000e+00
   outer loop
     vertex -1.010000e+01 -3.600000e+01  0.000000e+00
     vertex  4.000000e+00 -3.420000e+01  0.000000e+00
     vertex  1.010000e+01 -3.600000e+01  0.000000e+00
   endloop
 endfacet
 facet normal  0.000000e+00  0.000000e+00 -1.000000e+00
   outer loop
     vertex -1.010000e+01 -3.600000e+01  0.000000e+00
     vertex -4.000000e+00 -3.420000e+01  0.000000e+00
     vertex  4.000000e+00 -3.420000e+01  0.000000e+00
   endloop
 endfacet
 facet normal -1.000000e+00  0.000000e+00 -0.000000e+00
   outer loop
     vertex -1.210000e+01  1.481823e-15  4.700000e+00
     vertex -1.210000e+01  1.481823e-15  0.000000e+00
     vertex -1.210000e+01 -1.400000e+00  0.000000e+00
   endloop
 endfacet
 facet normal -1.000000e+00 -0.000000e+00  0.000000e+00
   outer loop
     vertex -1.210000e+01  1.481823e-15  4.700000e+00
     vertex -1.210000e+01 -1.400000e+00  0.000000e+00
     vertex -1.210000e+01 -1.400000e+00  4.700000e+00
   endloop
 endfacet
 facet normal -0.000000e+00  0.000000e+00  1.000000e+00
   outer loop
     vertex -1.210000e+01 -1.400000e+00  4.700000e+00
     vertex -4.400000e+00 -1.400000e+00  4.700000e+00
     vertex -4.400000e+00  5.388446e-16  4.700000e+00
   endloop
 endfacet
 facet normal  0.000000e+00  0.000000e+00  1.000000e+00
   outer loop
     vertex -1.210000e+01 -1.400000e+00  4.700000e+00
     vertex -4.400000e+00  5.388446e-16  4.700000e+00
     vertex -1.210000e+01  1.481823e-15  4.700000e+00
   endloop
 endfacet
 facet normal  1.000000e+00  0.000000e+00  0.000000e+00
   outer loop
     vertex -4.400000e+00 -1.400000e+00  2.600000e+00
     vertex -4.400000e+00 -1.600000e+00  1.800000e+00
     vertex -4.400000e+00 -1.400000e+00  1.600000e+00
   endloop
 endfacet
 facet normal  1.000000e+00  0.000000e+00  0.000000e+00
   outer loop
     vertex -4.400000e+00 -1.400000e+00  2.600000e+00
     vertex -4.400000e+00 -1.600000e+00  2.400000e+00
     vertex -4.400000e+00 -1.600000e+00  1.800000e+00
   endloop
 endfacet
 facet normal  1.000000e+00  0.000000e+00  0.000000e+00
   outer loop
     vertex -4.400000e+00  5.388446e-16  1.600000e+00
     vertex -4.400000e+00 -1.400000e+00  2.600000e+00
     vertex -4.400000e+00 -1.400000e+00  1.600000e+00
   endloop
 endfacet
 facet normal  1.000000e+00  0.000000e+00  0.000000e+00
   outer loop
     vertex -4.400000e+00  5.388446e-16  4.700000e+00
     vertex -4.400000e+00 -1.400000e+00  4.700000e+00
     vertex -4.400000e+00 -1.400000e+00  2.600000e+00
   endloop
 endfacet
 facet normal  1.000000e+00  0.000000e+00  0.000000e+00
   outer loop
     vertex -4.400000e+00  5.388446e-16  4.700000e+00
     vertex -4.400000e+00 -1.400000e+00  2.600000e+00
     vertex -4.400000e+00  5.388446e-16  1.600000e+00
   endloop
 endfacet
 facet normal -0.000000e+00  0.000000e+00  1.000000e+00
   outer loop
     vertex -4.400000e+00 -1.400000e+00  1.600000e+00
     vertex  4.400000e+00 -1.400000e+00  1.600000e+00
     vertex  4.400000e+00 -5.388446e-16  1.600000e+00
   endloop
 endfacet
 facet normal  0.000000e+00  0.000000e+00  1.000000e+00
   outer loop
     vertex -4.400000e+00 -1.400000e+00  1.600000e+00
     vertex  4.400000e+00 -5.388446e-16  1.600000e+00
     vertex -4.400000e+00  5.388446e-16  1.600000e+00
   endloop
 endfacet
 facet normal -1.000000e+00  0.000000e+00 -0.000000e+00
   outer loop
     vertex  4.400000e+00 -1.400000e+00  2.600000e+00
     vertex  4.400000e+00 -1.400000e+00  1.600000e+00
     vertex  4.400000e+00 -1.600000e+00  1.800000e+00
   endloop
 endfacet
 facet normal -1.000000e+00  0.000000e+00  0.000000e+00
   outer loop
     vertex  4.400000e+00 -1.400000e+00  2.600000e+00
     vertex  4.400000e+00 -1.600000e+00  1.800000e+00
     vertex  4.400000e+00 -1.600000e+00  2.400000e+00
   endloop
 endfacet
 facet normal -1.000000e+00  0.000000e+00  0.000000e+00
   outer loop
     vertex  4.400000e+00 -5.388446e-16  1.600000e+00
     vertex  4.400000e+00 -1.400000e+00  1.600000e+00
     vertex  4.400000e+00 -1.400000e+00  2.600000e+00
   endloop
 endfacet
 facet normal -1.000000e+00 -0.000000e+00  0.000000e+00
   outer loop
     vertex  4.400000e+00 -5.388446e-16  4.700000e+00
     vertex  4.400000e+00 -1.400000e+00  2.600000e+00
     vertex  4.400000e+00 -1.400000e+00  4.700000e+00
   endloop
 endfacet
 facet normal -1.000000e+00  0.000000e+00 -0.000000e+00
   outer loop
     vertex  4.400000e+00 -5.388446e-16  4.700000e+00
     vertex  4.400000e+00 -5.388446e-16  1.600000e+00
     vertex  4.400000e+00 -1.400000e+00  2.600000e+00
   endloop
 endfacet
 facet normal -0.000000e+00  0.000000e+00  1.000000e+00
   outer loop
     vertex  4.400000e+00 -1.400000e+00  4.700000e+00
     vertex  1.210000e+01 -1.400000e+00  4.700000e+00
     vertex  1.210000e+01 -1.481823e-15  4.700000e+00
   endloop
 endfacet
 facet normal  0.000000e+00  0.000000e+00  1.000000e+00
   outer loop
     vertex  4.400000e+00 -1.400000e+00  4.700000e+00
     vertex  1.210000e+01 -1.481823e-15  4.700000e+00
     vertex  4.400000e+00 -5.388446e-16  4.700000e+00
   endloop
 endfacet
 facet normal  1.000000e+00  0.000000e+00  0.000000e+00
   outer loop
     vertex  1.210000e+01 -1.481823e-15  4.700000e+00
     vertex  1.210000e+01 -1.400000e+00  0.000000e+00
     vertex  1.210000e+01 -1.481823e-15  0.000000e+00
   endloop
 endfacet
 facet normal  1.000000e+00  0.000000e+00  0.000000e+00
   outer loop
     vertex  1.210000e+01 -1.481823e-15  4.700000e+00
     vertex  1.210000e+01 -1.400000e+00  4.700000e+00
     vertex  1.210000e+01 -1.400000e+00  0.000000e+00
   endloop
 endfacet
 facet normal  1.000000e+00 -1.026796e-16  0.000000e+00
   outer loop
     vertex  1.010000e+01 -1.400000e+00  0.000000e+00
     vertex  1.010000e+01 -3.600000e+01  2.600000e+00
     vertex  1.010000e+01 -3.600000e+01  0.000000e+00
   endloop
 endfacet
 facet normal  1.000000e+00 -1.026796e-16  0.000000e+00
   outer loop
     vertex  1.010000e+01 -1.400000e+00  2.600000e+00
     vertex  1.010000e+01 -3.600000e+01  2.600000e+00
     vertex  1.010000e+01 -1.400000e+00  0.000000e+00
   endloop
 endfacet
 facet normal -1.110223e-16 -1.000000e+00  2.865092e-17
   outer loop
     vertex  1.050000e+01 -1.400000e+00  1.550000e+00
     vertex  1.010000e+01 -1.400000e+00  0.000000e+00
     vertex  1.210000e+01 -1.400000e+00  0.000000e+00
   endloop
 endfacet
 facet normal  0.000000e+00 -1.000000e+00  1.432546e-16
   outer loop
     vertex  1.050000e+01 -1.400000e+00  1.550000e+00
     vertex  1.210000e+01 -1.400000e+00  0.000000e+00
     vertex  1.170000e+01 -1.400000e+00  1.550000e+00
   endloop
 endfacet
 facet normal -5.551115e-16 -1.000000e+00  0.000000e+00
   outer loop
     vertex  1.210000e+01 -1.400000e+00  4.700000e+00
     vertex  1.170000e+01 -1.400000e+00  3.150000e+00
     vertex  1.170000e+01 -1.400000e+00  1.550000e+00
   endloop
 endfacet
 facet normal -5.551115e-16 -1.000000e+00 -0.000000e+00
   outer loop
     vertex  1.210000e+01 -1.400000e+00  4.700000e+00
     vertex  1.170000e+01 -1.400000e+00  1.550000e+00
     vertex  1.210000e+01 -1.400000e+00  0.000000e+00
   endloop
 endfacet
 facet normal  0.000000e+00 -1.000000e+00 -1.432546e-16
   outer loop
     vertex  1.050000e+01 -1.400000e+00  3.150000e+00
     vertex  1.170000e+01 -1.400000e+00  3.150000e+00
     vertex  1.210000e+01 -1.400000e+00  4.700000e+00
   endloop
 endfacet
 facet normal  0.000000e+00 -1.000000e+00 -0.000000e+00
   outer loop
     vertex  1.050000e+01 -1.400000e+00  3.150000e+00
     vertex  1.010000e+01 -1.400000e+00  2.600000e+00
     vertex  1.050000e+01 -1.400000e+00  1.550000e+00
   endloop
 endfacet
 facet normal -2.220446e-16 -1.000000e+00  1.614870e-16
   outer loop
     vertex  9.100000e+00 -1.400000e+00  2.600000e+00
     vertex  1.010000e+01 -1.400000e+00  2.600000e+00
     vertex  1.050000e+01 -1.400000e+00  3.150000e+00
   endloop
 endfacet
 facet normal -2.220446e-16 -1.000000e+00  0.000000e+00
   outer loop
     vertex  8.100000e+00 -1.400000e+00  1.600000e+00
     vertex  9.100000e+00 -1.400000e+00  4.000000e-01
     vertex  9.100000e+00 -1.400000e+00  2.600000e+00
   endloop
 endfacet
 facet normal -2.220446e-16 -1.000000e+00  1.614870e-16
   outer loop
     vertex  8.100000e+00 -1.400000e+00  2.600000e+00
     vertex  9.100000e+00 -1.400000e+00  2.600000e+00
     vertex  1.050000e+01 -1.400000e+00  3.150000e+00
   endloop
 endfacet
 facet normal -1.993710e-16 -1.000000e+00  6.254778e-17
   outer loop
     vertex  8.100000e+00 -1.400000e+00  2.600000e+00
     vertex  1.050000e+01 -1.400000e+00  3.150000e+00
     vertex  1.210000e+01 -1.400000e+00  4.700000e+00
   endloop
 endfacet
 facet normal -2.220446e-16 -1.000000e+00 -0.000000e+00
   outer loop
     vertex  8.100000e+00 -1.400000e+00  2.600000e+00
     vertex  8.100000e+00 -1.400000e+00  1.600000e+00
     vertex  9.100000e+00 -1.400000e+00  2.600000e+00
   endloop
 endfacet
 facet normal -1.200241e-16 -1.000000e+00  8.501708e-17
   outer loop
     vertex  4.400000e+00 -1.400000e+00  1.600000e+00
     vertex  9.100000e+00 -1.400000e+00  4.000000e-01
     vertex  8.100000e+00 -1.400000e+00  1.600000e+00
   endloop
 endfacet
 facet normal -1.200241e-16 -1.000000e+00 -0.000000e+00
   outer loop
     vertex  4.400000e+00 -1.400000e+00  4.700000e+00
     vertex  4.400000e+00 -1.400000e+00  2.600000e+00
     vertex  8.100000e+00 -1.400000e+00  2.600000e+00
   endloop
 endfacet
 facet normal -1.441848e-16 -1.000000e+00 -4.256885e-17
   outer loop
     vertex  4.400000e+00 -1.400000e+00  4.700000e+00
     vertex  8.100000e+00 -1.400000e+00  2.600000e+00
     vertex  1.210000e+01 -1.400000e+00  4.700000e+00
   endloop
 endfacet
 facet normal -1.200241e-16 -1.000000e+00 -8.501708e-17
   outer loop
     vertex -8.100000e+00 -1.400000e+00  1.600000e+00
     vertex -9.100000e+00 -1.400000e+00  4.000000e-01
     vertex -4.400000e+00 -1.400000e+00  1.600000e+00
   endloop
 endfacet
 facet normal -1.200241e-16 -1.000000e+00  0.000000e+00
   outer loop
     vertex -8.100000e+00 -1.400000e+00  2.600000e+00
     vertex -4.400000e+00 -1.400000e+00  2.600000e+00
     vertex -4.400000e+00 -1.400000e+00  4.700000e+00
   endloop
 endfacet
 facet normal -2.220446e-16 -1.000000e+00  0.000000e+00
   outer loop
     vertex -9.100000e+00 -1.400000e+00  2.600000e+00
     vertex -8.100000e+00 -1.400000e+00  1.600000e+00
     vertex -8.100000e+00 -1.400000e+00  2.600000e+00
   endloop
 endfacet
 facet normal -2.220446e-16 -1.000000e+00 -0.000000e+00
   outer loop
     vertex -9.100000e+00 -1.400000e+00  2.600000e+00
     vertex -9.100000e+00 -1.400000e+00  4.000000e-01
     vertex -8.100000e+00 -1.400000e+00  1.600000e+00
   endloop
 endfacet
 facet normal -1.110223e-16 -1.000000e+00 -1.146037e-16
   outer loop
     vertex -1.170000e+01 -1.400000e+00  1.550000e+00
     vertex -1.210000e+01 -1.400000e+00  0.000000e+00
     vertex -1.010000e+01 -1.400000e+00  0.000000e+00
   endloop
 endfacet
 facet normal  0.000000e+00 -1.000000e+00  0.000000e+00
   outer loop
     vertex -1.170000e+01 -1.400000e+00  1.550000e+00
     vertex -1.010000e+01 -1.400000e+00  0.000000e+00
     vertex -1.050000e+01 -1.400000e+00  1.550000e+00
   endloop
 endfacet
 facet normal -2.220446e-16 -1.000000e+00 -1.614870e-16
   outer loop
     vertex -1.050000e+01 -1.400000e+00  3.150000e+00
     vertex -1.010000e+01 -1.400000e+00  2.600000e+00
     vertex -9.100000e+00 -1.400000e+00  2.600000e+00
   endloop
 endfacet
 facet normal -2.220446e-16 -1.000000e+00 -1.614870e-16
   outer loop
     vertex -1.050000e+01 -1.400000e+00  3.150000e+00
     vertex -9.100000e+00 -1.400000e+00  2.600000e+00
     vertex -8.100000e+00 -1.400000e+00  2.600000e+00
   endloop
 endfacet
 facet normal  0.000000e+00 -1.000000e+00  0.000000e+00
   outer loop
     vertex -1.050000e+01 -1.400000e+00  3.150000e+00
     vertex -1.050000e+01 -1.400000e+00  1.550000e+00
     vertex -1.010000e+01 -1.400000e+00  2.600000e+00
   endloop
 endfacet
 facet normal -5.551115e-16 -1.000000e+00 -0.000000e+00
   outer loop
     vertex -1.170000e+01 -1.400000e+00  3.150000e+00
     vertex -1.210000e+01 -1.400000e+00  0.000000e+00
     vertex -1.170000e+01 -1.400000e+00  1.550000e+00
   endloop
 endfacet
 facet normal  0.000000e+00 -1.000000e+00  1.432546e-16
   outer loop
     vertex -1.210000e+01 -1.400000e+00  4.700000e+00
     vertex -1.170000e+01 -1.400000e+00  3.150000e+00
     vertex -1.050000e+01 -1.400000e+00  3.150000e+00
   endloop
 endfacet
 facet normal -1.441848e-16 -1.000000e+00  4.256885e-17
   outer loop
     vertex -1.210000e+01 -1.400000e+00  4.700000e+00
     vertex -8.100000e+00 -1.400000e+00  2.600000e+00
     vertex -4.400000e+00 -1.400000e+00  4.700000e+00
   endloop
 endfacet
 facet normal -1.993710e-16 -1.000000e+00 -6.254778e-17
   outer loop
     vertex -1.210000e+01 -1.400000e+00  4.700000e+00
     vertex -1.050000e+01 -1.400000e+00  3.150000e+00
     vertex -8.100000e+00 -1.400000e+00  2.600000e+00
   endloop
 endfacet
 facet normal -5.551115e-16 -1.000000e+00 -0.000000e+00
   outer loop
     vertex -1.210000e+01 -1.400000e+00  4.700000e+00
     vertex -1.210000e+01 -1.400000e+00  0.000000e+00
     vertex -1.170000e+01 -1.400000e+00  3.150000e+00
   endloop
 endfacet
 facet normal  0.000000e+00 -1.000000e+00  0.000000e+00
   outer loop
     vertex -1.010000e+01 -1.400000e+00  0.000000e+00
     vertex -1.010000e+01 -1.400000e+00  2.600000e+00
     vertex -1.050000e+01 -1.400000e+00  1.550000e+00
   endloop
 endfacet
 facet normal -1.220025e-16 -1.000000e+00  7.726827e-17
   outer loop
     vertex -9.100000e+00 -1.400000e+00  4.000000e-01
     vertex  9.100000e+00 -1.400000e+00  4.000000e-01
     vertex  4.400000e+00 -1.400000e+00  1.600000e+00
   endloop
 endfacet
 facet normal -1.009294e-16 -1.000000e+00 -1.598048e-16
   outer loop
     vertex -9.100000e+00 -1.400000e+00  4.000000e-01
     vertex  4.400000e+00 -1.400000e+00  1.600000e+00
     vertex -4.400000e+00 -1.400000e+00  1.600000e+00
   endloop
 endfacet
 facet normal  0.000000e+00 -1.000000e+00  0.000000e+00
   outer loop
     vertex  1.010000e+01 -1.400000e+00  2.600000e+00
     vertex  1.010000e+01 -1.400000e+00  0.000000e+00
     vertex  1.050000e+01 -1.400000e+00  1.550000e+00
   endloop
 endfacet
 facet normal -1.000000e+00  1.026796e-16  0.000000e+00
   outer loop
     vertex -1.010000e+01 -1.400000e+00  0.000000e+00
     vertex -1.010000e+01 -3.600000e+01  0.000000e+00
     vertex -1.010000e+01 -3.600000e+01  2.600000e+00
   endloop
 endfacet
 facet normal -1.000000e+00  1.026796e-16  0.000000e+00
   outer loop
     vertex -1.010000e+01 -1.400000e+00  2.600000e+00
     vertex -1.010000e+01 -1.400000e+00  0.000000e+00
     vertex -1.010000e+01 -3.600000e+01  2.600000e+00
   endloop
 endfacet
 facet normal  0.000000e+00 -1.000000e+00  0.000000e+00
   outer loop
     vertex -1.010000e+01 -3.600000e+01  0.000000e+00
     vertex  1.010000e+01 -3.600000e+01  0.000000e+00
     vertex  1.010000e+01 -3.600000e+01  2.600000e+00
   endloop
 endfacet
 facet normal  0.000000e+00 -1.000000e+00  0.000000e+00
   outer loop
     vertex -1.010000e+01 -3.600000e+01  2.600000e+00
     vertex -1.010000e+01 -3.600000e+01  0.000000e+00
     vertex  1.010000e+01 -3.600000e+01  2.600000e+00
   endloop
 endfacet
 facet normal  0.000000e+00  1.000000e+00  0.000000e+00
   outer loop
     vertex -8.600000e+00 -3.420000e+01  4.000000e-01
     vertex -4.000000e+00 -3.420000e+01  0.000000e+00
     vertex -8.600000e+00 -3.420000e+01  0.000000e+00
   endloop
 endfacet
 facet normal -0.000000e+00  1.000000e+00  0.000000e+00
   outer loop
     vertex -8.600000e+00 -3.420000e+01  4.000000e-01
     vertex -4.000000e+00 -3.420000e+01  4.000000e-01
     vertex -4.000000e+00 -3.420000e+01  0.000000e+00
   endloop
 endfacet
 facet normal  1.000000e+00 -1.153478e-16  0.000000e+00
   outer loop
     vertex -8.600000e+00 -3.400000e+00  4.000000e-01
     vertex -8.600000e+00 -3.420000e+01  0.000000e+00
     vertex -8.600000e+00 -3.400000e+00  0.000000e+00
   endloop
 endfacet
 facet normal  1.000000e+00 -1.153478e-16  0.000000e+00
   outer loop
     vertex -8.600000e+00 -3.400000e+00  4.000000e-01
     vertex -8.600000e+00 -3.420000e+01  4.000000e-01
     vertex -8.600000e+00 -3.420000e+01  0.000000e+00
   endloop
 endfacet
 facet normal  0.000000e+00 -1.000000e+00  0.000000e+00
   outer loop
     vertex -8.600000e+00 -3.400000e+00  4.000000e-01
     vertex -8.600000e+00 -3.400000e+00  0.000000e+00
     vertex -4.000000e+00 -3.400000e+00  0.000000e+00
   endloop
 endfacet
 facet normal  0.000000e+00 -1.000000e+00  0.000000e+00
   outer loop
     vertex -8.600000e+00 -3.400000e+00  4.000000e-01
     vertex -4.000000e+00 -3.400000e+00  0.000000e+00
     vertex -4.000000e+00 -3.400000e+00  4.000000e-01
   endloop
 endfacet
 facet normal -1.000000e+00  1.153478e-16  0.000000e+00
   outer loop
     vertex -4.000000e+00 -3.400000e+00  4.000000e-01
     vertex -4.000000e+00 -3.400000e+00  0.000000e+00
     vertex -4.000000e+00 -3.420000e+01  0.000000e+00
   endloop
 endfacet
 facet normal -1.000000e+00  1.153478e-16  0.000000e+00
   outer loop
     vertex -4.000000e+00 -3.400000e+00  4.000000e-01
     vertex -4.000000e+00 -3.420000e+01  0.000000e+00
     vertex -4.000000e+00 -3.420000e+01  4.000000e-01
   endloop
 endfacet
 facet normal -1.000000e+00  1.153478e-16  0.000000e+00
   outer loop
     vertex  8.600000e+00 -3.400000e+00  0.000000e+00
     vertex  8.600000e+00 -3.420000e+01  0.000000e+00
     vertex  8.600000e+00 -3.420000e+01  4.000000e-01
   endloop
 endfacet
 facet normal -1.000000e+00  1.153478e-16  0.000000e+00
   outer loop
     vertex  8.600000e+00 -3.400000e+00  4.000000e-01
     vertex  8.600000e+00 -3.400000e+00  0.000000e+00
     vertex  8.600000e+00 -3.420000e+01  4.000000e-01
   endloop
 endfacet
 facet normal  0.000000e+00  1.000000e+00  0.000000e+00
   outer loop
     vertex  4.000000e+00 -3.420000e+01  4.000000e-01
     vertex  8.600000e+00 -3.420000e+01  0.000000e+00
     vertex  4.000000e+00 -3.420000e+01  0.000000e+00
   endloop
 endfacet
 facet normal -0.000000e+00  1.000000e+00  0.000000e+00
   outer loop
     vertex  4.000000e+00 -3.420000e+01  4.000000e-01
     vertex  8.600000e+00 -3.420000e+01  4.000000e-01
     vertex  8.600000e+00 -3.420000e+01  0.000000e+00
   endloop
 endfacet
 facet normal  1.000000e+00 -1.153478e-16  0.000000e+00
   outer loop
     vertex  4.000000e+00 -3.400000e+00  0.000000e+00
     vertex  4.000000e+00 -3.420000e+01  4.000000e-01
     vertex  4.000000e+00 -3.420000e+01  0.000000e+00
   endloop
 endfacet
 facet normal  1.000000e+00 -1.153478e-16  0.000000e+00
   outer loop
     vertex  4.000000e+00 -3.400000e+00  4.000000e-01
     vertex  4.000000e+00 -3.420000e+01  4.000000e-01
     vertex  4.000000e+00 -3.400000e+00  0.000000e+00
   endloop
 endfacet
 facet normal  0.000000e+00 -1.000000e+00  0.000000e+00
   outer loop
     vertex  4.000000e+00 -3.400000e+00  4.000000e-01
     vertex  4.000000e+00 -3.400000e+00  0.000000e+00
     vertex  8.600000e+00 -3.400000e+00  0.000000e+00
   endloop
 endfacet
 facet normal  0.000000e+00 -1.000000e+00  0.000000e+00
   outer loop
     vertex  4.000000e+00 -3.400000e+00  4.000000e-01
     vertex  8.600000e+00 -3.400000e+00  0.000000e+00
     vertex  8.600000e+00 -3.400000e+00  4.000000e-01
   endloop
 endfacet
 facet normal -8.619595e-17 -7.071068e-01  7.071068e-01
   outer loop
     vertex -4.400000e+00 -1.400000e+00  2.600000e+00
     vertex -8.100000e+00 -1.600000e+00  2.400000e+00
     vertex -4.400000e+00 -1.600000e+00  2.400000e+00
   endloop
 endfacet
 facet normal -8.486986e-17 -7.071068e-01  7.071068e-01
   outer loop
     vertex -4.400000e+00 -1.400000e+00  2.600000e+00
     vertex -8.100000e+00 -1.400000e+00  2.600000e+00
     vertex -8.100000e+00 -1.600000e+00  2.400000e+00
   endloop
 endfacet
 facet normal -1.200241e-16 -1.000000e+00 -0.000000e+00
   outer loop
     vertex -4.400000e+00 -1.600000e+00  2.400000e+00
     vertex -8.100000e+00 -1.600000e+00  1.800000e+00
     vertex -4.400000e+00 -1.600000e+00  1.800000e+00
   endloop
 endfacet
 facet normal -1.200241e-16 -1.000000e+00  0.000000e+00
   outer loop
     vertex -4.400000e+00 -1.600000e+00  2.400000e+00
     vertex -8.100000e+00 -1.600000e+00  2.400000e+00
     vertex -8.100000e+00 -1.600000e+00  1.800000e+00
   endloop
 endfacet
 facet normal -8.619595e-17 -7.071068e-01 -7.071068e-01
   outer loop
     vertex -4.400000e+00 -1.600000e+00  1.800000e+00
     vertex -8.100000e+00 -1.400000e+00  1.600000e+00
     vertex -4.400000e+00 -1.400000e+00  1.600000e+00
   endloop
 endfacet
 facet normal -8.486986e-17 -7.071068e-01 -7.071068e-01
   outer loop
     vertex -4.400000e+00 -1.600000e+00  1.800000e+00
     vertex -8.100000e+00 -1.600000e+00  1.800000e+00
     vertex -8.100000e+00 -1.400000e+00  1.600000e+00
   endloop
 endfacet
 facet normal -8.619595e-17 -7.071068e-01  7.071068e-01
   outer loop
     vertex  8.100000e+00 -1.400000e+00  2.600000e+00
     vertex  4.400000e+00 -1.600000e+00  2.400000e+00
     vertex  8.100000e+00 -1.600000e+00  2.400000e+00
   endloop
 endfacet
 facet normal -8.486986e-17 -7.071068e-01  7.071068e-01
   outer loop
     vertex  8.100000e+00 -1.400000e+00  2.600000e+00
     vertex  4.400000e+00 -1.400000e+00  2.600000e+00
     vertex  4.400000e+00 -1.600000e+00  2.400000e+00
   endloop
 endfacet
 facet normal -1.200241e-16 -1.000000e+00 -0.000000e+00
   outer loop
     vertex  8.100000e+00 -1.600000e+00  2.400000e+00
     vertex  4.400000e+00 -1.600000e+00  1.800000e+00
     vertex  8.100000e+00 -1.600000e+00  1.800000e+00
   endloop
 endfacet
 facet normal -1.200241e-16 -1.000000e+00  0.000000e+00
   outer loop
     vertex  8.100000e+00 -1.600000e+00  2.400000e+00
     vertex  4.400000e+00 -1.600000e+00  2.400000e+00
     vertex  4.400000e+00 -1.600000e+00  1.800000e+00
   endloop
 endfacet
 facet normal -8.619595e-17 -7.071068e-01 -7.071068e-01
   outer loop
     vertex  8.100000e+00 -1.600000e+00  1.800000e+00
     vertex  4.400000e+00 -1.400000e+00  1.600000e+00
     vertex  8.100000e+00 -1.400000e+00  1.600000e+00
   endloop
 endfacet
 facet normal -8.486986e-17 -7.071068e-01 -7.071068e-01
   outer loop
     vertex  8.100000e+00 -1.600000e+00  1.800000e+00
     vertex  4.400000e+00 -1.600000e+00  1.800000e+00
     vertex  4.400000e+00 -1.400000e+00  1.600000e+00
   endloop
 endfacet
 facet normal  0.000000e+00  0.000000e+00  1.000000e+00
   outer loop
     vertex  9.100000e+00 -3.460000e+01  2.600000e+00
     vertex  1.010000e+01 -1.400000e+00  2.600000e+00
     vertex  9.100000e+00 -1.400000e+00  2.600000e+00
   endloop
 endfacet
 facet normal  0.000000e+00 -0.000000e+00  1.000000e+00
   outer loop
     vertex  1.010000e+01 -3.600000e+01  2.600000e+00
     vertex  1.010000e+01 -1.400000e+00  2.600000e+00
     vertex  9.100000e+00 -3.460000e+01  2.600000e+00
   endloop
 endfacet
 facet normal -0.000000e+00  0.000000e+00  1.000000e+00
   outer loop
     vertex  5.300000e+00 -3.460000e+01  2.600000e+00
     vertex  1.010000e+01 -3.600000e+01  2.600000e+00
     vertex  9.100000e+00 -3.460000e+01  2.600000e+00
   endloop
 endfacet
 facet normal  0.000000e+00 -0.000000e+00  1.000000e+00
   outer loop
     vertex -9.100000e+00 -3.460000e+01  2.600000e+00
     vertex -9.100000e+00 -1.400000e+00  2.600000e+00
     vertex -1.010000e+01 -1.400000e+00  2.600000e+00
   endloop
 endfacet
 facet normal  0.000000e+00  0.000000e+00  1.000000e+00
   outer loop
     vertex -1.010000e+01 -3.600000e+01  2.600000e+00
     vertex -5.300000e+00 -3.460000e+01  2.600000e+00
     vertex -9.100000e+00 -3.460000e+01  2.600000e+00
   endloop
 endfacet
 facet normal  0.000000e+00  0.000000e+00  1.000000e+00
   outer loop
     vertex -1.010000e+01 -3.600000e+01  2.600000e+00
     vertex -9.100000e+00 -3.460000e+01  2.600000e+00
     vertex -1.010000e+01 -1.400000e+00  2.600000e+00
   endloop
 endfacet
 facet normal  0.000000e+00  0.000000e+00  1.000000e+00
   outer loop
     vertex -1.010000e+01 -3.600000e+01  2.600000e+00
     vertex  1.010000e+01 -3.600000e+01  2.600000e+00
     vertex  5.300000e+00 -3.460000e+01  2.600000e+00
   endloop
 endfacet
 facet normal  0.000000e+00  0.000000e+00  1.000000e+00
   outer loop
     vertex -1.010000e+01 -3.600000e+01  2.600000e+00
     vertex  5.300000e+00 -3.460000e+01  2.600000e+00
     vertex -5.300000e+00 -3.460000e+01  2.600000e+00
   endloop
 endfacet
 facet normal -1.000000e+00  1.070094e-16  0.000000e+00
   outer loop
     vertex  9.100000e+00 -1.400000e+00  2.600000e+00
     vertex  9.100000e+00 -1.400000e+00  4.000000e-01
     vertex  9.100000e+00 -3.460000e+01  4.000000e-01
   endloop
 endfacet
 facet normal -1.000000e+00  1.070094e-16  0.000000e+00
   outer loop
     vertex  9.100000e+00 -1.400000e+00  2.600000e+00
     vertex  9.100000e+00 -3.460000e+01  4.000000e-01
     vertex  9.100000e+00 -3.460000e+01  2.600000e+00
   endloop
 endfacet
 facet normal -0.000000e+00  0.000000e+00  1.000000e+00
   outer loop
     vertex  4.000000e+00 -3.400000e+00  4.000000e-01
     vertex  8.600000e+00 -3.400000e+00  4.000000e-01
     vertex  9.100000e+00 -1.400000e+00  4.000000e-01
   endloop
 endfacet
 facet normal  0.000000e+00  0.000000e+00  1.000000e+00
   outer loop
     vertex -9.100000e+00 -1.400000e+00  4.000000e-01
     vertex  4.000000e+00 -3.400000e+00  4.000000e-01
     vertex  9.100000e+00 -1.400000e+00  4.000000e-01
   endloop
 endfacet
 facet normal  0.000000e+00  0.000000e+00  1.000000e+00
   outer loop
     vertex -9.100000e+00 -1.400000e+00  4.000000e-01
     vertex -4.000000e+00 -3.400000e+00  4.000000e-01
     vertex  4.000000e+00 -3.400000e+00  4.000000e-01
   endloop
 endfacet
 facet normal -0.000000e+00 -0.000000e+00  1.000000e+00
   outer loop
     vertex -8.600000e+00 -3.400000e+00  4.000000e-01
     vertex -4.000000e+00 -3.400000e+00  4.000000e-01
     vertex -9.100000e+00 -1.400000e+00  4.000000e-01
   endloop
 endfacet
 facet normal -0.000000e+00  0.000000e+00  1.000000e+00
   outer loop
     vertex  8.600000e+00 -3.420000e+01  4.000000e-01
     vertex  9.100000e+00 -3.460000e+01  4.000000e-01
     vertex  8.600000e+00 -3.400000e+00  4.000000e-01
   endloop
 endfacet
 facet normal -0.000000e+00  0.000000e+00  1.000000e+00
   outer loop
     vertex  4.000000e+00 -3.420000e+01  4.000000e-01
     vertex  9.100000e+00 -3.460000e+01  4.000000e-01
     vertex  8.600000e+00 -3.420000e+01  4.000000e-01
   endloop
 endfacet
 facet normal  0.000000e+00  0.000000e+00  1.000000e+00
   outer loop
     vertex -4.000000e+00 -3.420000e+01  4.000000e-01
     vertex  4.000000e+00 -3.420000e+01  4.000000e-01
     vertex  4.000000e+00 -3.400000e+00  4.000000e-01
   endloop
 endfacet
 facet normal  0.000000e+00  0.000000e+00  1.000000e+00
   outer loop
     vertex -4.000000e+00 -3.420000e+01  4.000000e-01
     vertex  4.000000e+00 -3.400000e+00  4.000000e-01
     vertex -4.000000e+00 -3.400000e+00  4.000000e-01
   endloop
 endfacet
 facet normal  0.000000e+00  0.000000e+00  1.000000e+00
   outer loop
     vertex -9.100000e+00 -3.460000e+01  4.000000e-01
     vertex -4.000000e+00 -3.420000e+01  4.000000e-01
     vertex -8.600000e+00 -3.420000e+01  4.000000e-01
   endloop
 endfacet
 facet normal  0.000000e+00  0.000000e+00  1.000000e+00
   outer loop
     vertex -9.100000e+00 -3.460000e+01  4.000000e-01
     vertex -8.600000e+00 -3.420000e+01  4.000000e-01
     vertex -8.600000e+00 -3.400000e+00  4.000000e-01
   endloop
 endfacet
 facet normal  0.000000e+00 -0.000000e+00  1.000000e+00
   outer loop
     vertex  9.100000e+00 -3.460000e+01  4.000000e-01
     vertex  9.100000e+00 -1.400000e+00  4.000000e-01
     vertex  8.600000e+00 -3.400000e+00  4.000000e-01
   endloop
 endfacet
 facet normal  0.000000e+00  0.000000e+00  1.000000e+00
   outer loop
     vertex -9.100000e+00 -1.400000e+00  4.000000e-01
     vertex -9.100000e+00 -3.460000e+01  4.000000e-01
     vertex -8.600000e+00 -3.400000e+00  4.000000e-01
   endloop
 endfacet
 facet normal  0.000000e+00  0.000000e+00  1.000000e+00
   outer loop
     vertex -9.100000e+00 -3.460000e+01  4.000000e-01
     vertex  9.100000e+00 -3.460000e+01  4.000000e-01
     vertex  4.000000e+00 -3.420000e+01  4.000000e-01
   endloop
 endfacet
 facet normal  0.000000e+00  0.000000e+00  1.000000e+00
   outer loop
     vertex -9.100000e+00 -3.460000e+01  4.000000e-01
     vertex  4.000000e+00 -3.420000e+01  4.000000e-01
     vertex -4.000000e+00 -3.420000e+01  4.000000e-01
   endloop
 endfacet
 facet normal  1.000000e+00  0.000000e+00  0.000000e+00
   outer loop
     vertex  8.100000e+00 -1.400000e+00  2.600000e+00
     vertex  8.100000e+00 -1.600000e+00  1.800000e+00
     vertex  8.100000e+00 -1.400000e+00  1.600000e+00
   endloop
 endfacet
 facet normal  1.000000e+00  0.000000e+00  0.000000e+00
   outer loop
     vertex  8.100000e+00 -1.400000e+00  2.600000e+00
     vertex  8.100000e+00 -1.600000e+00  2.400000e+00
     vertex  8.100000e+00 -1.600000e+00  1.800000e+00
   endloop
 endfacet
 facet normal  1.000000e+00 -1.070094e-16  0.000000e+00
   outer loop
     vertex -9.100000e+00 -1.400000e+00  2.600000e+00
     vertex -9.100000e+00 -3.460000e+01  4.000000e-01
     vertex -9.100000e+00 -1.400000e+00  4.000000e-01
   endloop
 endfacet
 facet normal  1.000000e+00 -1.070094e-16  0.000000e+00
   outer loop
     vertex -9.100000e+00 -1.400000e+00  2.600000e+00
     vertex -9.100000e+00 -3.460000e+01  2.600000e+00
     vertex -9.100000e+00 -3.460000e+01  4.000000e-01
   endloop
 endfacet
 facet normal -1.000000e+00  0.000000e+00 -0.000000e+00
   outer loop
     vertex -8.100000e+00 -1.400000e+00  2.600000e+00
     vertex -8.100000e+00 -1.400000e+00  1.600000e+00
     vertex -8.100000e+00 -1.600000e+00  1.800000e+00
   endloop
 endfacet
 facet normal -1.000000e+00  0.000000e+00  0.000000e+00
   outer loop
     vertex -8.100000e+00 -1.400000e+00  2.600000e+00
     vertex -8.100000e+00 -1.600000e+00  1.800000e+00
     vertex -8.100000e+00 -1.600000e+00  2.400000e+00
   endloop
 endfacet
 facet normal  0.000000e+00 -8.944272e-01 -4.472136e-01
   outer loop
     vertex  1.150000e+01 -1.600000e+00  1.950000e+00
     vertex  1.050000e+01 -1.400000e+00  1.550000e+00
     vertex  1.170000e+01 -1.400000e+00  1.550000e+00
   endloop
 endfacet
 facet normal -0.000000e+00 -8.944272e-01 -4.472136e-01
   outer loop
     vertex  1.150000e+01 -1.600000e+00  1.950000e+00
     vertex  1.070000e+01 -1.600000e+00  1.950000e+00
     vertex  1.050000e+01 -1.400000e+00  1.550000e+00
   endloop
 endfacet
 facet normal  7.071068e-01 -7.071068e-01  0.000000e+00
   outer loop
     vertex  1.150000e+01 -1.600000e+00  2.750000e+00
     vertex  1.170000e+01 -1.400000e+00  1.550000e+00
     vertex  1.170000e+01 -1.400000e+00  3.150000e+00
   endloop
 endfacet
 facet normal  7.071068e-01 -7.071068e-01  0.000000e+00
   outer loop
     vertex  1.150000e+01 -1.600000e+00  2.750000e+00
     vertex  1.150000e+01 -1.600000e+00  1.950000e+00
     vertex  1.170000e+01 -1.400000e+00  1.550000e+00
   endloop
 endfacet
 facet normal  0.000000e+00 -8.944272e-01  4.472136e-01
   outer loop
     vertex  1.070000e+01 -1.600000e+00  2.750000e+00
     vertex  1.170000e+01 -1.400000e+00  3.150000e+00
     vertex  1.050000e+01 -1.400000e+00  3.150000e+00
   endloop
 endfacet
 facet normal  0.000000e+00 -8.944272e-01  4.472136e-01
   outer loop
     vertex  1.070000e+01 -1.600000e+00  2.750000e+00
     vertex  1.150000e+01 -1.600000e+00  2.750000e+00
     vertex  1.170000e+01 -1.400000e+00  3.150000e+00
   endloop
 endfacet
 facet normal -7.071068e-01 -7.071068e-01  0.000000e+00
   outer loop
     vertex  1.070000e+01 -1.600000e+00  1.950000e+00
     vertex  1.050000e+01 -1.400000e+00  3.150000e+00
     vertex  1.050000e+01 -1.400000e+00  1.550000e+00
   endloop
 endfacet
 facet normal -7.071068e-01 -7.071068e-01  0.000000e+00
   outer loop
     vertex  1.070000e+01 -1.600000e+00  1.950000e+00
     vertex  1.070000e+01 -1.600000e+00  2.750000e+00
     vertex  1.050000e+01 -1.400000e+00  3.150000e+00
   endloop
 endfacet
 facet normal  7.071068e-01 -7.071068e-01  0.000000e+00
   outer loop
     vertex -1.070000e+01 -1.600000e+00  1.950000e+00
     vertex -1.050000e+01 -1.400000e+00  1.550000e+00
     vertex -1.050000e+01 -1.400000e+00  3.150000e+00
   endloop
 endfacet
 facet normal  7.071068e-01 -7.071068e-01  0.000000e+00
   outer loop
     vertex -1.070000e+01 -1.600000e+00  1.950000e+00
     vertex -1.050000e+01 -1.400000e+00  3.150000e+00
     vertex -1.070000e+01 -1.600000e+00  2.750000e+00
   endloop
 endfacet
 facet normal  0.000000e+00 -8.944272e-01  4.472136e-01
   outer loop
     vertex -1.070000e+01 -1.600000e+00  2.750000e+00
     vertex -1.050000e+01 -1.400000e+00  3.150000e+00
     vertex -1.170000e+01 -1.400000e+00  3.150000e+00
   endloop
 endfacet
 facet normal  0.000000e+00 -8.944272e-01  4.472136e-01
   outer loop
     vertex -1.070000e+01 -1.600000e+00  2.750000e+00
     vertex -1.170000e+01 -1.400000e+00  3.150000e+00
     vertex -1.150000e+01 -1.600000e+00  2.750000e+00
   endloop
 endfacet
 facet normal -7.071068e-01 -7.071068e-01  0.000000e+00
   outer loop
     vertex -1.150000e+01 -1.600000e+00  2.750000e+00
     vertex -1.170000e+01 -1.400000e+00  3.150000e+00
     vertex -1.170000e+01 -1.400000e+00  1.550000e+00
   endloop
 endfacet
 facet normal -7.071068e-01 -7.071068e-01 -0.000000e+00
   outer loop
     vertex -1.150000e+01 -1.600000e+00  2.750000e+00
     vertex -1.170000e+01 -1.400000e+00  1.550000e+00
     vertex -1.150000e+01 -1.600000e+00  1.950000e+00
   endloop
 endfacet
 facet normal  0.000000e+00 -8.944272e-01 -4.472136e-01
   outer loop
     vertex -1.150000e+01 -1.600000e+00  1.950000e+00
     vertex -1.170000e+01 -1.400000e+00  1.550000e+00
     vertex -1.050000e+01 -1.400000e+00  1.550000e+00
   endloop
 endfacet
 facet normal  0.000000e+00 -8.944272e-01 -4.472136e-01
   outer loop
     vertex -1.150000e+01 -1.600000e+00  1.950000e+00
     vertex -1.050000e+01 -1.400000e+00  1.550000e+00
     vertex -1.070000e+01 -1.600000e+00  1.950000e+00
   endloop
 endfacet
 facet normal -0.000000e+00  1.000000e+00  0.000000e+00
   outer loop
     vertex  5.300000e+00 -3.460000e+01  1.600000e+00
     vertex  9.100000e+00 -3.460000e+01  2.600000e+00
     vertex  9.100000e+00 -3.460000e+01  4.000000e-01
   endloop
 endfacet
 facet normal -0.000000e+00  1.000000e+00  0.000000e+00
   outer loop
     vertex  5.300000e+00 -3.460000e+01  2.600000e+00
     vertex  9.100000e+00 -3.460000e+01  2.600000e+00
     vertex  5.300000e+00 -3.460000e+01  1.600000e+00
   endloop
 endfacet
 facet normal -0.000000e+00  1.000000e+00  0.000000e+00
   outer loop
     vertex -9.100000e+00 -3.460000e+01  2.600000e+00
     vertex -5.300000e+00 -3.460000e+01  2.600000e+00
     vertex -5.300000e+00 -3.460000e+01  1.600000e+00
   endloop
 endfacet
 facet normal  0.000000e+00  1.000000e+00  0.000000e+00
   outer loop
     vertex -9.100000e+00 -3.460000e+01  2.600000e+00
     vertex -5.300000e+00 -3.460000e+01  1.600000e+00
     vertex -9.100000e+00 -3.460000e+01  4.000000e-01
   endloop
 endfacet
 facet normal  0.000000e+00  1.000000e+00  0.000000e+00
   outer loop
     vertex -9.100000e+00 -3.460000e+01  4.000000e-01
     vertex  5.300000e+00 -3.460000e+01  1.600000e+00
     vertex  9.100000e+00 -3.460000e+01  4.000000e-01
   endloop
 endfacet
 facet normal  0.000000e+00  1.000000e+00  0.000000e+00
   outer loop
     vertex -9.100000e+00 -3.460000e+01  4.000000e-01
     vertex -5.300000e+00 -3.460000e+01  1.600000e+00
     vertex  5.300000e+00 -3.460000e+01  1.600000e+00
   endloop
 endfacet
 facet normal  0.000000e+00  7.071068e-01  7.071068e-01
   outer loop
     vertex  5.300000e+00 -3.460000e+01  2.600000e+00
     vertex  5.300000e+00 -3.440000e+01  2.400000e+00
     vertex -5.300000e+00 -3.440000e+01  2.400000e+00
   endloop
 endfacet
 facet normal  0.000000e+00  7.071068e-01  7.071068e-01
   outer loop
     vertex  5.300000e+00 -3.460000e+01  2.600000e+00
     vertex -5.300000e+00 -3.440000e+01  2.400000e+00
     vertex -5.300000e+00 -3.460000e+01  2.600000e+00
   endloop
 endfacet
 facet normal -0.000000e+00 -1.000000e+00  0.000000e+00
   outer loop
     vertex  1.150000e+01 -1.600000e+00  2.750000e+00
     vertex  1.070000e+01 -1.600000e+00  2.750000e+00
     vertex  1.070000e+01 -1.600000e+00  1.950000e+00
   endloop
 endfacet
 facet normal  0.000000e+00 -1.000000e+00  0.000000e+00
   outer loop
     vertex  1.150000e+01 -1.600000e+00  1.950000e+00
     vertex  1.150000e+01 -1.600000e+00  2.750000e+00
     vertex  1.070000e+01 -1.600000e+00  1.950000e+00
   endloop
 endfacet
 facet normal  0.000000e+00 -1.000000e+00  0.000000e+00
   outer loop
     vertex -1.150000e+01 -1.600000e+00  2.750000e+00
     vertex -1.070000e+01 -1.600000e+00  1.950000e+00
     vertex -1.070000e+01 -1.600000e+00  2.750000e+00
   endloop
 endfacet
 facet normal  0.000000e+00 -1.000000e+00  0.000000e+00
   outer loop
     vertex -1.150000e+01 -1.600000e+00  1.950000e+00
     vertex -1.070000e+01 -1.600000e+00  1.950000e+00
     vertex -1.150000e+01 -1.600000e+00  2.750000e+00
   endloop
 endfacet
 facet normal -1.000000e+00  0.000000e+00 -0.000000e+00
   outer loop
     vertex -5.300000e+00 -3.440000e+01  2.400000e+00
     vertex -5.300000e+00 -3.440000e+01  1.800000e+00
     vertex -5.300000e+00 -3.460000e+01  1.600000e+00
   endloop
 endfacet
 facet normal -1.000000e+00 -0.000000e+00  0.000000e+00
   outer loop
     vertex -5.300000e+00 -3.440000e+01  2.400000e+00
     vertex -5.300000e+00 -3.460000e+01  1.600000e+00
     vertex -5.300000e+00 -3.460000e+01  2.600000e+00
   endloop
 endfacet
 facet normal  0.000000e+00  7.071068e-01 -7.071068e-01
   outer loop
     vertex  5.300000e+00 -3.440000e+01  1.800000e+00
     vertex  5.300000e+00 -3.460000e+01  1.600000e+00
     vertex -5.300000e+00 -3.460000e+01  1.600000e+00
   endloop
 endfacet
 facet normal  0.000000e+00  7.071068e-01 -7.071068e-01
   outer loop
     vertex  5.300000e+00 -3.440000e+01  1.800000e+00
     vertex -5.300000e+00 -3.460000e+01  1.600000e+00
     vertex -5.300000e+00 -3.440000e+01  1.800000e+00
   endloop
 endfacet
 facet normal  1.000000e+00  0.000000e+00  0.000000e+00
   outer loop
     vertex  5.300000e+00 -3.440000e+01  2.400000e+00
     vertex  5.300000e+00 -3.460000e+01  1.600000e+00
     vertex  5.300000e+00 -3.440000e+01  1.800000e+00
   endloop
 endfacet
 facet normal  1.000000e+00  0.000000e+00  0.000000e+00
   outer loop
     vertex  5.300000e+00 -3.440000e+01  2.400000e+00
     vertex  5.300000e+00 -3.460000e+01  2.600000e+00
     vertex  5.300000e+00 -3.460000e+01  1.600000e+00
   endloop
 endfacet
 facet normal  0.000000e+00  1.000000e+00  0.000000e+00
   outer loop
     vertex  5.300000e+00 -3.440000e+01  2.400000e+00
     vertex  5.300000e+00 -3.440000e+01  1.800000e+00
     vertex -5.300000e+00 -3.440000e+01  1.800000e+00
   endloop
 endfacet
 facet normal  0.000000e+00  1.000000e+00  0.000000e+00
   outer loop
     vertex  5.300000e+00 -3.440000e+01  2.400000e+00
     vertex -5.300000e+00 -3.440000e+01  1.800000e+00
     vertex -5.300000e+00 -3.440000e+01  2.400000e+00
   endloop
 endfacet
endsolid
